<?xml version="1.0" encoding="utf-8"?>
<!-- Generator: Adobe Illustrator 22.0.1, SVG Export Plug-In . SVG Version: 6.00 Build 0)  -->
<svg version="1.1"
	 id="svg2" inkscape:version="0.92.2 5c3e80d, 2017-08-06" sodipodi:docname="galle-display.svg" xmlns:cc="http://creativecommons.org/ns#" xmlns:dc="http://purl.org/dc/elements/1.1/" xmlns:inkscape="http://www.inkscape.org/namespaces/inkscape" xmlns:rdf="http://www.w3.org/1999/02/22-rdf-syntax-ns#" xmlns:sodipodi="http://sodipodi.sourceforge.net/DTD/sodipodi-0.dtd" xmlns:svg="http://www.w3.org/2000/svg"
	 xmlns="http://www.w3.org/2000/svg" xmlns:xlink="http://www.w3.org/1999/xlink" x="0px" y="0px" viewBox="0 0 1100 450"
	 style="enable-background:new 0 0 1100 450;" xml:space="preserve">
<sodipodi:namedview  bordercolor="#666666" borderopacity="1" gridtolerance="10" guidetolerance="10" id="namedview4" inkscape:current-layer="g10" inkscape:cx="631.20343" inkscape:cy="142.21047" inkscape:pageopacity="0" inkscape:pageshadow="2" inkscape:window-height="1159" inkscape:window-maximized="0" inkscape:window-width="1822" inkscape:window-x="667" inkscape:window-y="0" inkscape:zoom="0.84100751" objecttolerance="10" pagecolor="#ffffff" showgrid="false">
	</sodipodi:namedview>
<g id="g146">
	<g id="g152" transform="translate(69.3362,558.6793)">
		<path id="path154" inkscape:connector-curvature="0" d="M52.6-499h-2.8l-2.6-2.9l-0.6-1.5v4.4h-2.3l-0.1-13.4l2.4-0.1v6l1,1.4
			l1.7-3.3h2.4l-2.6,5.1L52.6-499z M38-474.1c-0.3-0.3-0.4-0.6-0.4-1s0.1-0.7,0.4-1.1c0.3-0.3,0.6-0.4,1-0.4s0.7,0.1,1,0.4
			s0.4,0.7,0.4,1.1s-0.1,0.7-0.4,1c-0.3,0.3-0.6,0.4-1,0.4S38.3-473.9,38-474.1 M39.4-501.4c0.4-0.3,0.6-0.7,0.6-1.2v-0.7
			c-0.5,0-1.1,0.1-1.6,0.1c-0.5,0.1-0.9,0.3-1.3,0.5c-0.3,0.2-0.5,0.5-0.5,0.9c0,0.3,0.1,0.5,0.3,0.7c0.3,0.2,0.5,0.3,0.9,0.3
			C38.5-500.9,38.9-501,39.4-501.4 M36.5-469.1h1.7v-1.4h-1.7V-469.1z M40.2-499l-0.1-1.2c-0.3,0.4-0.6,0.7-1.1,1s-0.9,0.4-1.6,0.4
			c-0.7,0-1.3-0.1-1.8-0.4s-0.8-0.6-1-1s-0.3-0.8-0.3-1.2c0-1.1,0.3-1.8,1-2.4c0.7-0.5,1.4-0.8,2.2-0.9c0.7-0.1,1.4-0.2,2.2-0.1
			v-0.1c0-0.5-0.1-0.7-0.4-0.9c-0.3-0.2-0.6-0.3-1-0.3c-0.3,0-0.7,0.1-1.1,0.3c-0.4,0.2-0.7,0.5-0.9,0.7l-1.3-1.2
			c0.4-0.6,0.9-1.2,1.7-1.5c0.7-0.3,1.4-0.5,2.2-0.5c1,0,1.8,0.3,2.4,0.8c0.5,0.5,0.8,1.2,0.8,2.1l0.1,4.7v2L40.2-499L40.2-499z
			 M38.2-467.2h-2.7c-0.4,0-0.7,0.1-0.9,0.3c-0.2,0.2-0.3,0.5-0.3,0.8c0,0.5,0.2,0.9,0.5,1.2c0.4,0.3,0.9,0.4,1.5,0.4
			c0.5,0,1-0.2,1.4-0.5c0.3-0.4,0.5-0.9,0.5-1.6V-467.2z M43.7-468.4c0.7,0.5,0.9,1.2,0.9,2.3c0,1.2-0.4,2.1-1.2,2.6
			c-0.7,0.5-1.6,0.8-2.6,0.8h-0.4l-0.1-1.6c0.7,0,1.2-0.2,1.6-0.5c0.3-0.3,0.5-0.7,0.5-1.3c0-0.4-0.1-0.7-0.4-0.9s-0.6-0.3-1.1-0.3
			h-0.4v0.6c0,1.2-0.3,2.1-1,2.8c-0.7,0.7-1.8,1.2-3.2,1.2c-0.9,0-1.6-0.1-2.2-0.5c-0.6-0.3-1-0.7-1.4-1.3c-0.3-0.5-0.5-1-0.5-1.6
			c0-0.8,0.2-1.5,0.6-2c0.4-0.5,0.9-0.8,1.7-1v-3.4h7.7l-0.1,1.9h-1.8v1.4h0.9C42.3-469.1,43.1-468.9,43.7-468.4 M35.8-483.8
			c0.2-0.2,0.3-0.5,0.3-0.9c0-0.3-0.1-0.7-0.3-0.9c-0.2-0.2-0.6-0.3-1.1-0.3h-0.3l-0.8-1.6l-2.8,2.2H31c0,0.5,0,0.9,0.1,1.2
			c0.1,0.3,0.4,0.5,0.7,0.5s0.5-0.1,0.6-0.3c0.1-0.2,0.2-0.5,0.2-1h1.5c0,0.4,0.1,0.7,0.2,1c0.1,0.2,0.4,0.3,0.7,0.3
			C35.4-483.5,35.6-483.6,35.8-483.8 M30.3-503.9c0-1.4,0-2.6-0.1-3.7v-0.8l2.3-0.1l0.1,6.1v3.3h-2.3V-503.9z M30.3-510.3
			c-0.3-0.3-0.4-0.6-0.4-1s0.1-0.7,0.4-1.1c0.3-0.3,0.6-0.4,1-0.4s0.7,0.1,1,0.4c0.3,0.3,0.4,0.6,0.4,1.1c0,0.4-0.1,0.7-0.4,1
			c-0.3,0.3-0.6,0.4-1,0.4S30.6-510,30.3-510.3 M42.3-488.2c0.2,0.6,0.3,1.2,0.3,1.9c0,1-0.2,1.9-0.6,2.6c-0.4,0.7-1,1.3-1.6,1.7
			c-0.7,0.4-1.4,0.6-2.2,0.7L38-483c0.7-0.1,1.2-0.3,1.7-0.9c0.4-0.5,0.6-1.4,0.6-2.4c0-0.5-0.1-1-0.3-1.4s-0.5-0.7-1-1
			s-0.9-0.4-1.6-0.4c-0.4,0-0.7,0.1-1.1,0.1c-0.3,0.1-0.7,0.3-1.2,0.5l0.3,0.9c0.7,0.1,1.3,0.3,1.8,0.8s0.7,1.1,0.7,1.9
			c0,1-0.2,1.8-0.7,2.4s-1.1,0.9-2,0.9c-0.5,0-0.9-0.1-1.2-0.3c-0.3-0.2-0.5-0.4-0.7-0.7c-0.1,0.3-0.3,0.5-0.6,0.7s-0.6,0.3-1.1,0.3
			c-0.7,0-1.3-0.3-1.7-0.7c-0.4-0.5-0.6-1.2-0.7-2l-0.5,0.4l-1.1-1.6l4.3-3.3l0.6-0.4c-0.3-0.1-0.6-0.2-1-0.2
			c-0.3,0-0.5,0.1-0.7,0.1c-0.2,0.1-0.4,0.1-0.6,0.3c-0.2,0.1-0.3,0.1-0.4,0.2l-0.6-1.4c0.4-0.3,0.8-0.6,1.4-0.8
			c0.5-0.2,1-0.3,1.5-0.3s0.9,0.1,1.4,0.3c0.4,0.2,0.7,0.5,1,0.8c1.1-0.7,2.2-1,3.3-1c0.5,0,1.1,0.1,1.6,0.2v-3.6h2.1v4.7
			C41.7-489.3,42.1-488.8,42.3-488.2 M26.5-483c0.2,0,0.4-0.1,0.7-0.2l0.5,1.5c-0.7,0.5-1.4,0.7-2.3,0.7c-1.2,0-2-0.3-2.6-1
			c-0.6-0.6-0.9-1.4-0.9-2.5c0-1.5,0.8-2.7,2.5-3.6l1.7-0.4H22v-1.4h5v2.4c-0.9,0.2-1.7,0.5-2.2,1s-0.8,1-0.8,1.7
			c0,0.5,0.2,1,0.5,1.3s0.7,0.5,1.3,0.5C26.1-483,26.3-483,26.5-483 M27.1-508c0.5,0.5,0.8,1.1,0.8,1.9v7h-2.4v-3c0-1.6,0-2.6-0.1-3
			s-0.2-0.7-0.4-0.9c-0.2-0.2-0.5-0.3-0.9-0.3s-0.9,0.1-1.4,0.5c-0.5,0.3-0.8,0.7-1,1.1c0,2.2,0,4.1,0.1,5.7h-2.4
			c-0.1-3.2-0.1-6.4-0.1-9.5l2.2-0.1v1.4c0.4-0.5,1-0.8,1.5-1.1c0.6-0.3,1.2-0.4,1.9-0.4C25.9-508.6,26.5-508.4,27.1-508
			 M28.4-472.2l2.4-0.1v9.5h-7l0.1-1.5c-0.7,1.2-1.7,1.8-3.1,1.8c-0.7,0-1.4-0.2-1.8-0.7c-0.5-0.5-0.7-1.1-0.7-1.8v-7.2l2.4-0.1v6.2
			c0,0.5,0.1,0.9,0.3,1.2c0.2,0.3,0.5,0.4,0.9,0.4c0.3,0,0.6-0.1,0.9-0.3c0.3-0.2,0.5-0.4,0.6-0.7v-6.8l2.2-0.1v7.6h3L28.4-472.2
			L28.4-472.2z M14.9-501.7c0.4-0.5,0.6-1.1,0.6-1.9c0-0.5-0.1-1.1-0.3-1.5s-0.5-0.7-0.9-0.9c-0.4-0.2-0.7-0.3-1.2-0.3
			c-0.7,0-1.2,0.3-1.6,0.7c-0.4,0.5-0.6,1.2-0.6,2c0,0.5,0.1,0.9,0.3,1.4c0.2,0.4,0.5,0.7,0.9,0.9c0.4,0.2,0.8,0.3,1.2,0.3
			C13.9-501,14.5-501.2,14.9-501.7 M17.1-488.2c1.1,0,1.9,0.3,2.6,0.9s1,1.4,1,2.4c0,0.7-0.1,1.4-0.4,2c-0.3,0.5-0.7,1-1.2,1.3
			s-1.1,0.5-1.7,0.5c-1.2,0-2-0.4-2.4-1.2c-0.3,0.3-0.5,0.7-1,0.9c-0.4,0.2-0.9,0.3-1.4,0.3c-1.2,0-2.2-0.4-2.8-1.2
			c-0.6-0.8-0.9-1.9-0.9-3.3c0-1,0.2-1.9,0.7-2.6s0.9-1.3,1.6-1.6c0.4-0.2,0.9-0.3,1.4-0.3c0.4,0,0.9,0.1,1.3,0.2l-0.3,1.7
			c-0.1,0-0.3-0.1-0.4-0.1c-0.6,0-1.1,0.2-1.5,0.6s-0.6,1-0.6,1.8c0,0.7,0.1,1.3,0.5,1.6c0.3,0.3,0.7,0.5,1.2,0.5s0.9-0.1,1.2-0.4
			c0.2-0.3,0.3-0.7,0.4-1.3H16c0,0.6,0.1,1.1,0.4,1.4s0.6,0.4,1.1,0.4c0.3,0,0.6-0.1,0.9-0.3s0.3-0.5,0.3-0.9c0-0.6-0.2-1.1-0.7-1.3
			c-0.5-0.3-1-0.3-1.8-0.3c-0.4,0-1,0.1-1.8,0.1c-0.1-0.5-0.1-1-0.1-1.4c0-0.9,0.2-1.6,0.5-2.2c0.3-0.4,0.6-0.7,1.2-1
			c0.5-0.2,1-0.3,1.6-0.3c1.3,0,2.3,0.5,3,1.6l-0.9,1.3c-0.4-0.3-0.7-0.5-0.9-0.7c-0.2-0.1-0.5-0.2-0.9-0.2c-0.5,0-1,0.1-1.2,0.4
			c-0.3,0.3-0.3,0.5-0.3,0.8C16.4-488.2,16.8-488.2,17.1-488.2 M10.7-499.4c-0.7-0.5-1.3-1-1.6-1.8c-0.3-0.7-0.5-1.5-0.5-2.4
			c0-1,0.2-1.9,0.6-2.6c0.4-0.7,0.9-1.4,1.6-1.8c0.7-0.4,1.5-0.6,2.4-0.6c0.9,0,1.8,0.2,2.5,0.6c0.7,0.4,1.2,1,1.6,1.7
			s0.5,1.6,0.5,2.4c0,1-0.2,1.8-0.5,2.6c-0.3,0.7-0.9,1.4-1.6,1.8c-0.7,0.5-1.5,0.7-2.4,0.7C12.3-498.7,11.4-499,10.7-499.4
			 M3-491.2c0.5,0,1.1,0.1,1.6,0.2c0.1-0.3,0.2-0.6,0.2-0.8c0-0.5-0.2-0.9-0.5-1.2c-0.3-0.3-0.8-0.3-1.4-0.3s-1.1,0.1-1.5,0.5
			c-0.4,0.3-0.6,0.7-0.6,1.2c0,0.3,0.1,0.5,0.3,0.9C1.8-491.1,2.4-491.2,3-491.2 M13.3-475.9c0.8,0.4,1.5,1,2,1.8s0.7,1.7,0.7,2.8
			l0.1,8.4H14v-7.2c0-1.4-0.3-2.4-1.1-3.1c-0.7-0.7-1.6-1.1-2.8-1.1c-0.5,0-1.1,0.1-1.6,0.4s-0.7,0.6-0.7,1c0,0.1,0,0.3,0.1,0.4H10
			l-0.1,2H8.2v1.5c0.5-0.3,1-0.4,1.6-0.4c1,0,1.7,0.4,2.2,1.1s0.9,1.7,0.9,3c0,1-0.2,2-0.6,2.8c-0.4,0.9-1,1.6-1.9,2
			c-0.8,0.5-1.8,0.7-3,0.7H4.9c-0.6,0-1,0.1-1.4,0.4c-0.3,0.3-0.5,0.6-0.5,1l-2.4-0.3c0-0.9,0.3-1.6,1-2.2s1.6-0.9,2.8-0.9h2.1
			c1.4,0,2.3-0.3,3-0.9c0.6-0.6,0.9-1.6,0.9-2.9c0-0.6-0.1-1.1-0.3-1.4c-0.2-0.4-0.5-0.5-0.9-0.5c-0.2,0-0.5,0.1-0.6,0.2
			c-0.2,0.1-0.3,0.3-0.3,0.6v3.7H6.1v-7.5H3.6v7.6H1.2v-9.6h4.9C6-472.7,6-473,6-473.3c0-0.7,0.2-1.3,0.7-1.8s1-0.9,1.7-1.2
			c0.7-0.3,1.4-0.4,2.2-0.4C11.5-476.5,12.5-476.3,13.3-475.9 M4.1-501.7c0.4-0.5,0.6-1.1,0.6-1.9c0-0.5-0.1-1.1-0.3-1.5
			c-0.2-0.4-0.5-0.7-0.9-0.9c-0.4-0.2-0.7-0.3-1.2-0.3c-0.7,0-1.2,0.3-1.6,0.7c-0.4,0.5-0.6,1.2-0.6,2c0,0.5,0.1,0.9,0.3,1.4
			c0.2,0.4,0.5,0.7,0.9,0.9c0.4,0.2,0.8,0.3,1.2,0.3C3.2-501,3.7-501.2,4.1-501.7 M-0.1-499.4c-0.7-0.5-1.3-1-1.6-1.8
			c-0.3-0.7-0.5-1.5-0.5-2.4c0-1,0.2-1.9,0.6-2.6s0.9-1.4,1.6-1.8s1.5-0.6,2.4-0.6c1,0,1.8,0.2,2.5,0.6s1.2,1,1.6,1.7
			c0.4,0.7,0.5,1.6,0.5,2.4c0,1-0.2,1.8-0.5,2.6c-0.3,0.7-0.9,1.4-1.6,1.8c-0.7,0.5-1.5,0.7-2.4,0.7C1.5-498.7,0.7-499-0.1-499.4
			 M-0.1-483.8c0.3-0.2,0.5-0.4,0.5-0.7c0-0.3-0.1-0.5-0.3-0.6s-0.5-0.2-0.8-0.2H-1l-0.3-0.9c-0.8,0.7-1.5,1.2-2,1.4h-0.2
			c-0.2,0-0.4,0-0.5-0.1c0.2,0.5,0.5,0.8,1,1s1,0.3,1.6,0.3C-1-483.5-0.5-483.6-0.1-483.8 M-2.9-465.9c0.3-0.5,0.4-1,0.4-1.8
			c0-0.5-0.1-0.9-0.2-1.4s-0.3-0.8-0.6-1c-0.3-0.3-0.5-0.4-0.9-0.4c-0.5,0-0.8,0.3-0.8,0.8v4.5h0.5C-3.7-465.3-3.2-465.5-2.9-465.9
			 M7.3-488.5c0.3,0.6,0.4,1.3,0.4,2c0,1.1-0.2,2-0.6,2.8c-0.4,0.7-0.9,1.4-1.6,1.8s-1.4,0.6-2.2,0.7l-0.3-2
			c0.6-0.1,1.2-0.3,1.6-0.7c0.5-0.5,0.7-1.2,0.7-2.2c0-0.8-0.2-1.6-0.6-2.2s-1.1-0.9-2-0.9c-0.5,0-0.9,0.1-1.4,0.4
			c-0.4,0.3-0.9,0.7-1.4,1.2l0.1,0.7c0.6,0.1,1.1,0.3,1.6,0.6c0.5,0.3,0.7,0.9,0.7,1.7c0,1-0.3,1.8-1,2.4s-1.6,0.9-2.9,0.9
			c-1.2,0-2.2-0.3-3-0.9s-1.3-1.4-1.6-2.2c-0.1-0.3-0.2-0.7-0.3-1.2c-0.1-0.4-0.1-0.9-0.1-1.6l1.5-0.3c0.1,0.5,0.2,0.8,0.3,1.1
			C-3.9-486.5-3-487-2-488l0,0c-0.1-0.4-0.4-0.7-0.7-0.9c-0.3-0.2-0.7-0.3-1-0.3c-0.4,0-0.9,0.2-1.5,0.5l-0.7-1.4
			c1-0.8,1.8-1.2,2.6-1.2c0.6,0,1.2,0.1,1.6,0.5c0.5,0.3,0.8,0.7,1,1.2l0.3-0.3c-0.5-0.6-0.9-1.4-0.9-2.2c0-0.6,0.1-1.2,0.5-1.6
			c0.3-0.5,0.8-0.9,1.4-1.2c0.6-0.3,1.4-0.5,2.3-0.5c0.7,0,1.3,0.1,1.8,0.3c0.6,0.2,1.1,0.5,1.4,1c0.4,0.5,0.5,1,0.5,1.6
			c0,0.4-0.1,0.7-0.2,1.1c-0.1,0.3-0.3,0.7-0.5,1C6.6-489.7,7-489.2,7.3-488.5 M-17.2-469.5c0.2,0.1,0.4,0.3,0.7,0.4
			c0.3,0.1,0.5,0.1,0.7,0.1c0.7,0,1.1-0.3,1.1-0.9c0-0.3-0.1-0.5-0.3-0.6c-0.2-0.2-0.4-0.3-0.7-0.3
			C-16.3-470.8-16.8-470.3-17.2-469.5 M-4.9-508c0.5,0.5,0.8,1.1,0.8,1.9v7h-2.4v-3c0-1.6,0-2.6-0.1-3s-0.2-0.7-0.4-0.9
			c-0.2-0.1-0.5-0.1-0.8-0.1c-0.4,0-0.8,0.1-1.3,0.4s-0.8,0.6-1.1,1v5.8h-2.4v-3c0-1.6,0-2.6-0.1-3s-0.2-0.7-0.4-0.9
			c-0.2-0.2-0.5-0.3-0.9-0.3s-0.8,0.1-1.3,0.5c-0.5,0.3-0.7,0.7-1,1.1c0,2.2,0,4.1,0.1,5.7h-2.4c-0.1-3.2-0.1-6.3-0.1-9.5l2.2-0.1
			v1.5c0.4-0.4,1-0.8,1.6-1.1c0.7-0.3,1.3-0.5,2-0.5c0.5,0,1,0.1,1.4,0.3c0.4,0.3,0.7,0.6,0.9,1.1c0.4-0.4,0.9-0.7,1.6-1
			c0.6-0.3,1.2-0.4,1.9-0.4C-6-508.6-5.4-508.4-4.9-508 M-10.3-493.2c0.9,0.6,1.6,1.4,2,2.4c0.4,1,0.6,2,0.6,3.1
			c0,1.2-0.2,2.2-0.5,3.2v7.3h-2.1c-0.2-0.3-0.5-0.5-0.8-0.7s-0.7-0.3-1-0.3s-0.6,0.1-0.9,0.1c-0.3,0.1-0.5,0.2-0.9,0.4
			c-0.3,0.2-0.7,0.3-1,0.4s-0.5,0.1-0.9,0.1c-0.7,0-1.2-0.2-1.7-0.6s-0.9-0.9-1-1.5l1.4-1c0.4,0.6,0.9,0.9,1.4,0.9
			c0.2,0,0.3,0,0.5-0.1s0.5-0.2,0.7-0.3c0.4-0.2,0.7-0.3,1.1-0.4c0.3-0.1,0.7-0.1,1-0.1c0.7,0,1.2,0.2,1.8,0.6v-2.3
			c-0.9,0.5-1.8,0.8-3,0.8c-1,0-1.9-0.2-2.7-0.5c-0.8-0.4-1.4-0.9-1.9-1.7c-0.5-0.7-0.7-1.8-0.7-2.9s0.2-1.9,0.6-2.6s1-0.9,1.8-0.9
			c0.3,0,0.6,0.1,1,0.1c0.3,0.1,0.6,0.2,0.9,0.3l0.7,0.3c-0.1,0.7-0.1,1.3-0.1,1.6c0,0.7,0.1,1,0.5,1c0.3,0,0.5-0.3,0.5-1
			c0-0.6-0.1-1.3-0.4-2l2-0.2c0.3,0.7,0.5,1.4,0.5,2.2c0,0.9-0.2,1.6-0.7,2.2c-0.4,0.5-1.1,0.9-2,0.9c-1.4,0-2.2-0.8-2.2-2.4
			c0-0.1,0-0.3,0.1-0.6c-0.2-0.1-0.4-0.2-0.5-0.2c-0.4,0-0.5,0.3-0.5,1.1c0,1,0.3,1.8,1,2.4c0.6,0.6,1.4,0.9,2.4,0.9
			s1.8-0.3,2.4-1.1c0.7-0.7,1-1.8,1-3.3c0-0.9-0.2-1.7-0.5-2.4c-0.3-0.7-0.9-1.2-1.5-1.6c-0.7-0.3-1.4-0.5-2.2-0.5
			c-0.5,0-0.9,0.1-1.6,0.2c-0.6,0.1-1.2,0.3-1.6,0.6l-0.6-1.6c0.6-0.3,1.3-0.6,2.1-0.9c0.7-0.3,1.5-0.4,2.2-0.4
			C-12.3-494.2-11.2-493.9-10.3-493.2 M-2.4-471.8c0.7,0.5,1.2,1.1,1.5,1.8c0.3,0.7,0.5,1.6,0.5,2.4c0,1.4-0.3,2.4-1,3.1
			s-1.8,1.2-3.1,1.2H-5c-0.2,1.7-1,2.9-2.2,3.7c-1.3,0.8-2.8,1.2-4.7,1.2c-1.8,0-3.3-0.3-4.5-1.1c-1.2-0.7-2-1.7-2.6-2.9
			c-0.5-1.2-0.8-2.4-0.8-3.9c0-1.4,0.2-2.5,0.5-3.5c0.4-1,0.9-1.8,1.6-2.3s1.4-0.8,2.3-0.8c0.6,0,1.2,0.1,1.6,0.4
			c0.4,0.3,0.7,0.6,0.9,1.1c0.2,0.4,0.3,0.9,0.3,1.4s-0.1,1-0.3,1.4c-0.2,0.5-0.5,0.9-1,1.2c-0.5,0.3-1,0.5-1.7,0.5
			c-0.4,0-0.9-0.1-1.2-0.2c-0.4-0.1-0.7-0.3-1-0.6c-0.1,0.5-0.1,1-0.1,1.6c0,1.1,0.2,2,0.6,2.9s1.1,1.6,2,2.1s2,0.8,3.3,0.8
			c1.2,0,2.2-0.3,3-0.7c0.8-0.5,1.4-1.2,1.5-2.2H-12v-8.9l2.4-0.1v7.1h2.2v-5.1c0-0.7,0.3-1.3,0.7-1.7c0.5-0.4,1.1-0.6,1.9-0.6
			C-3.8-472.6-3-472.3-2.4-471.8"/>
	</g>
</g>
<g id="XMLID_2901_">
	<path d="M209.7,89.6c-1,0.6-2.3,1.1-3.9,1.5c-1.6,0.4-3.5,0.6-5.7,0.6c-1.4,0-2.7-0.1-3.9-0.3c-0.1,0.5-0.2,1.1-0.3,1.6
		c-0.1,0.5-0.1,1,0,1.5c0.1,1.9,0.7,3.3,1.8,4.3c1.1,1,2.9,1.5,5.2,1.5c2.4,0,4.3-0.6,5.7-1.8c1.4-1.2,2-3.1,1.8-5.5h3.1
		c0,3.2-1,5.8-3,7.6c-2,1.9-4.6,2.8-7.9,2.8c-3.1,0-5.6-0.8-7.4-2.3c-1.9-1.5-2.8-3.6-2.8-6.3c0-0.7,0.1-1.4,0.3-2.1
		c0.2-0.7,0.4-1.3,0.6-1.8c-3.1-0.8-5.5-2.3-7.3-4.4c-1.8-2.1-2.7-4.9-2.7-8.5c0-2.2,0.4-4.3,1.3-6.4c0.9-2,2.3-3.7,4.3-4.9
		c2-1.3,4.7-1.9,8.1-1.9h8.6c0-1.3-0.4-2.3-1.3-3c-0.9-0.7-2-1.2-3.4-1.5c-1.4-0.3-2.8-0.4-4.2-0.4c-2.3,0-4.2,0.3-5.7,0.9
		c-1.5,0.6-2.4,1.8-2.6,3.6l-2.6,0.6c0-1.9,0.5-3.5,1.6-4.7c1-1.2,2.4-2,4.1-2.5c1.7-0.5,3.5-0.8,5.4-0.8c3.7,0,6.6,0.8,8.8,2.3
		c2.2,1.5,3.3,4.3,3.3,8.2H197c-1.5,0-3.1,0.3-4.7,0.8c-1.6,0.5-2.9,1.5-4,2.8c-1.1,1.3-1.6,3.2-1.6,5.7c0,3,0.6,5.4,1.8,7.1
		c1.2,1.7,2.8,2.9,5,3.6c2.1,0.7,4.6,1.1,7.5,1.1c1.2,0,2.5-0.2,4-0.5s2.7-0.8,3.5-1.4L209.7,89.6z"/>
	<path d="M228,82.3c0,3-0.4,5.3-1.3,6.9c-0.9,1.6-2.7,2.4-5.5,2.4c-4.4,0-6.6-3.1-6.6-9.3c0-6,2.6-13,7.7-20.8h-6.6v-2.7h10v2.6
		c-1.8,3-3.3,5.6-4.6,7.9c-1.2,2.3-2.1,4.4-2.7,6.5c-0.6,2.1-0.9,4.2-0.9,6.6c0,4.2,1.4,6.3,4.3,6.3c1.7,0,2.7-0.6,3.1-1.9
		c0.4-1.2,0.5-2.7,0.5-4.4v-0.9c0.7,0,1.3,0,1.7,0c0.4,0,0.7,0,0.9-0.1V82.3z"/>
	<path d="M262.4,72.9c0,3.5-0.6,6.7-1.9,9.5c-1.3,2.8-3.1,5.1-5.6,6.7c-2.4,1.7-5.5,2.5-9,2.5c-3.3,0-6.1-0.7-8.5-2.1
		c-2.4-1.4-4.3-3.4-5.6-6c-1.3-2.6-2-5.7-2-9.1c0-2.4,0.5-4.6,1.4-6.9c1-2.2,2.3-4.2,4.1-5.9c1.8-1.7,3.9-3,6.4-3.9
		c3.9-1.4,6.7-2.9,8.6-4.7c1.9-1.8,2.8-3.2,2.8-4.4h3.7c0,1.1-0.3,2.1-0.8,3c-0.5,0.9-1.2,1.6-1.8,2.1c-1,0.8-1.9,1.4-2.8,2
		c-0.9,0.5-1.9,1-2.8,1.5c2.5,0.2,4.9,0.9,7,2.2c2.1,1.3,3.8,3.1,5.1,5.4C261.7,67,262.4,69.7,262.4,72.9z M232.7,74.4
		c0,3,0.6,5.6,1.8,7.7c1.2,2.1,2.8,3.8,4.9,4.9c2,1.1,4.2,1.7,6.5,1.7c4.4,0,7.7-1.3,10.1-4c2.4-2.7,3.6-6.4,3.6-11.2
		c0-2.8-0.6-5.2-1.7-7.3c-1.1-2.1-2.7-3.6-4.6-4.8c-2-1.1-4.2-1.7-6.7-1.7c-2.6,0-4.9,0.6-7,1.7c-2.1,1.2-3.8,2.8-5,5
		C233.3,68.7,232.7,71.3,232.7,74.4z"/>
	<path d="M294.2,51.6c-1.1,1.2-2.3,2.6-3.5,4.1c-1.2,1.5-2.3,2.8-3.1,3.9c1.7,1.3,3,2.9,3.9,5c0,0,0-0.2,0-0.4c0-2.1,0.4-3.8,1.3-5
		c0.9-1.2,2-1.8,3.5-1.8c0.7,0,1.5,0.2,2.4,0.7c0.9,0.5,1.5,1.6,1.9,3.2c0.5-1.5,1.2-2.5,2.1-3.2c1-0.7,2-1,3.2-1
		c2.5,0,4.2,1.1,5.2,3.3c1,2.2,1.5,5.2,1.5,9v6.9c0,3.1-0.3,5.8-0.9,8c-0.6,2.3-1.6,4-3.1,5.3c-1.5,1.3-3.4,1.9-5.9,1.9
		c-2.8,0-4.7-0.8-5.7-2.3c-1.1-1.5-1.6-3.4-1.6-5.5h2.7c0,1.6,0.4,2.8,1.2,3.7c0.8,0.9,2.1,1.4,3.8,1.4c1.7,0,3-0.4,4-1.3
		c0.9-0.9,1.6-2,2-3.3c0.4-1.3,0.7-2.7,0.8-4.1c0.1-1.4,0.1-2.6,0.1-3.7v-6c0-3.6-0.4-6.3-1.1-8c-0.7-1.7-1.8-2.6-3.1-2.6
		c-1.3,0-2.2,0.6-2.9,1.8c-0.7,1.2-1,2.8-1,4.8v9h-2.7v-8.8c0-2.1-0.3-3.8-0.9-5c-0.6-1.2-1.3-1.8-2.2-1.8c-0.8,0-1.4,0.5-1.8,1.4
		c-0.4,1-0.6,2.2-0.6,3.7c0,0.2,0,1.1,0.1,2.7c0,1.6,0.1,4,0.2,7.1c0,5.5-1.1,9.6-3.3,12.4c-2.2,2.8-5.7,4.1-10.7,4.1
		c-1.4,0-2.7-0.1-3.8-0.4c-1.1-0.3-2.1-0.6-3-0.9c-0.6-0.2-1.2-0.4-1.7-0.5c-0.6-0.2-1.1-0.2-1.6-0.2c-1,0-1.7,0.3-2.2,1v1.1h-2.8
		v-1.3c0-1.7,0.2-3.2,0.5-4.4c0.3-1.2,0.8-2.3,1.6-3.4c0.7-1.1,1.7-2.3,2.9-3.6c-0.7-1-1.2-2.3-1.5-3.7c-0.3-1.4-0.4-2.9-0.4-4.6
		c0-3,0.6-5.5,1.7-7.5c1.2-2,2.7-3.4,4.6-4.4c1.9-0.9,4-1.4,6.2-1.4c1.8,0,3.5,0.4,5,1.1l5.3-6.7H294.2z M274.6,87.8
		c0.7,0.2,1.5,0.4,2.4,0.6c0.9,0.2,1.9,0.3,2.9,0.3c4.1,0,7-1.2,8.7-3.5c1.7-2.3,2.5-5.8,2.5-10.5c0-2.6-0.4-5-1.3-7.3
		c-0.8-2.3-2.1-4.1-3.8-5.5c-1.7-1.4-3.7-2.1-6.1-2.1c-3,0-5.3,0.9-6.8,2.8c-1.5,1.9-2.2,4.3-2.2,7.4c0,3.2,0.5,5.6,1.5,7.3
		c1,1.6,2.7,2.4,5,2.4c1.8,0,3-0.4,3.8-1.2c0.8-0.8,1.2-2,1.2-3.7v-4.6h2.5v4.4c0,2.4-0.6,4.2-1.9,5.6c-1.3,1.4-3.2,2.1-5.8,2.1
		c-2.3,0-4.2-0.6-5.7-1.7c-1.4,1.3-2.4,2.5-3,3.6c-0.6,1.1-0.9,2.2-0.9,3.3c0.9-0.5,1.8-0.7,2.8-0.7c0.6,0,1.2,0.1,1.9,0.2
		C273,87.4,273.8,87.6,274.6,87.8z"/>
	<path d="M284.3,54h-3.1c0.1-3.4,1.3-6,3.6-7.8c2.3-1.8,5.7-2.7,10.2-2.7c4.5,0,8.1,0.8,10.6,2.3c2.5,1.5,3.8,4.3,3.8,8.2h-2.9
		c-0.1-1.9-0.6-3.4-1.6-4.5c-1-1.1-2.4-1.9-4.1-2.3c-1.7-0.5-3.6-0.7-5.7-0.7c-3.4,0-6,0.6-7.9,1.7C285.3,49.4,284.3,51.3,284.3,54z
		"/>
	<path d="M335.3,87.6c-1.5,2.7-3.9,4-7.3,4c-1.8,0-3.5-0.5-5-1.5c-1.5-1-2.7-2.6-3.6-5c-0.9-2.4-1.4-5.6-1.4-9.9
		c0-3.5,0.5-6.6,1.5-9.3c1-2.7,2.5-4.9,4.7-6.4c2.2-1.5,5-2.3,8.5-2.3c0.5,0,1,0,1.4,0.1c0.4,0,0.8,0.1,1.1,0.2v2.5l-2.9-0.1
		c-3.8,0-6.6,1.4-8.4,4.1c-1.9,2.8-2.8,6.6-2.8,11.4c0,4.6,0.7,7.9,2,10c1.4,2,3.2,3,5.6,3c1.7,0,3-0.5,3.9-1.6
		c0.9-1.1,1.4-2.5,1.4-4.2v-6.3h2.7v6.2c0,1.8,0.5,3.3,1.5,4.4c1,1.1,2.5,1.7,4.6,1.7c1.5,0,2.8-0.5,3.7-1.5c1-1,1.6-2.4,2.1-4.1
		c0.4-1.7,0.6-3.6,0.6-5.6c0-3.2-0.8-5.6-2.3-7.3c-1.5-1.7-4-2.6-7.3-2.6h-4.7c0-3.4,0.6-6,1.7-7.8c1.1-1.8,3.1-2.7,6-2.7
		c2.9,0,5,0.8,6.2,2.5c1.2,1.7,1.8,3.6,1.8,5.9h-2.7v-0.8c0-3.3-1.8-4.9-5.3-4.9c-3,0-4.5,1.7-4.5,5.1h2.4c2.1,0,4,0.4,5.7,1.2
		c1.7,0.8,3.1,2.1,4.1,3.9c1,1.8,1.5,4.2,1.5,7.2c0,4.6-0.8,8.2-2.3,10.6c-1.5,2.5-3.9,3.7-7.1,3.7h-0.1c-1.8,0-3.3-0.4-4.5-1.2
		C336.5,89.6,335.7,88.7,335.3,87.6z"/>
	<path d="M392.9,74.6c0,5.5-1.1,9.8-3.2,12.8c-2.2,3-5.7,4.5-10.7,4.5l0.7-2.8c3,0,5.5-1,7.4-3.1c1.9-2,2.8-5.6,2.8-10.6
		c0-3.1-0.4-5.8-0.9-8.1c-0.6-2.3-1.6-4-3-5.2c-1.4-1.2-3.5-1.8-6.2-1.8c-2.5,0-4.5,0.6-5.8,1.8c-1.4,1.2-2.3,3.3-2.9,6.3l2.6,0.1
		c2.4,0.1,4.2,1,5.5,2.7c1.3,1.7,1.9,3.8,1.9,6.5c0,4.4-1,7.8-3.1,10.3c-2.1,2.4-5.4,3.7-10,3.7c-8,0-12-5.5-12-16.6
		c0-5.9,1.1-10.3,3.2-13.3c2.1-3,5-4.5,8.7-4.5h2l0.1,2.6l-2.4,0.1c-2.6,0.1-4.7,1.4-6.2,3.9c-1.5,2.5-2.3,6.3-2.3,11.2
		c0,4.7,0.8,8.1,2.5,10.3c1.7,2.2,4.1,3.3,7.4,3.3c3.2,0,5.5-1,6.9-3.1c1.4-2.1,2.1-4.9,2.1-8.4c0-1.9-0.4-3.3-1.2-4.4
		c-0.8-1.1-2-1.7-3.5-1.8l-2.5-0.1V76h-3v-5.8c0.5-4.6,1.7-7.9,3.6-10c2-2,4.9-3,8.9-3c3.1,0,5.6,0.8,7.4,2.3
		c1.8,1.5,3.2,3.6,3.9,6.2C392.5,68.4,392.9,71.3,392.9,74.6z"/>
	<path d="M429.3,83.3c0,2.9-0.7,5.4-2.1,7.7c-1.4,2.3-3.3,4.1-5.6,5.4c-2.3,1.3-4.9,2-7.7,2c-3.9,0-7.1-0.9-9.8-2.7
		c-2.7-1.8-4.6-4.2-6-7.2c-1.3-3.1-2-6.6-2-10.6c0-3.8,0.6-7.3,1.8-10.4s3.1-5.6,5.6-7.5c2.5-1.9,5.8-2.8,9.7-2.8
		c4.8,0,8.5,1.3,11.2,3.9c2.7,2.6,4,6,4,10.1c0,3.9-1,7.1-3,9.5c-2,2.4-4.7,3.6-8,3.6c-2.4,0-4.2-0.5-5.6-1.4
		c-1.4-0.9-2.4-2.1-2.9-3.4c-0.6-1.4-0.9-2.7-0.9-4c0-0.5,0.1-1.2,0.2-1.9c0.1-0.7,0.4-1.6,0.8-2.6h-3.3V68h13.9v3l-7.3-0.1
		c-0.5,0.7-0.8,1.4-0.9,2.3c-0.2,0.8-0.2,1.5-0.2,2.1c0,1.9,0.6,3.4,1.9,4.4c1.2,1,2.8,1.5,4.8,1.5c2.4,0,4.3-0.9,5.6-2.8
		c1.3-1.8,2-4.2,2-7.2c0-2.4-0.6-4.4-1.7-6.1c-1.2-1.7-2.7-2.9-4.6-3.8c-1.9-0.9-3.9-1.3-6.2-1.3c-3.1,0-5.6,0.8-7.6,2.4
		c-2,1.6-3.5,3.7-4.5,6.4c-1,2.7-1.5,5.7-1.5,9.1c0,3.3,0.5,6.2,1.6,8.8c1.1,2.6,2.7,4.6,4.9,6c2.2,1.5,4.9,2.2,8.2,2.2
		c2.3,0,4.3-0.5,6.2-1.5c1.9-1,3.3-2.4,4.4-4.1c1.1-1.7,1.6-3.7,1.6-5.9H429.3z"/>
	<path d="M466,70.7c0,3.8-0.6,7.3-1.8,10.5c-1.2,3.2-3,5.7-5.4,7.6c-2.4,1.9-5.5,2.9-9.2,2.9c-4.9,0-8.7-1.4-11.3-4.2
		c-2.7-2.8-4-6.6-4-11.5c0-2.5,0.5-4.8,1.6-6.7c1.1-1.9,2.6-3.5,4.5-4.6c1.9-1.1,4.2-1.6,6.7-1.6l3.2,0.1l-0.3,2.8h-3.2
		c-2.9,0-5.2,0.9-6.9,2.7s-2.7,4.2-2.7,7.3c0,4.3,1.2,7.4,3.5,9.4c2.3,2,5.3,3,9,3c2.9,0,5.3-0.8,7.2-2.3c2-1.5,3.5-3.6,4.5-6.3
		c1-2.6,1.5-5.6,1.5-8.8c0-3.9-0.7-7-2.2-9.6c-1.5-2.5-3.4-4.4-5.9-5.6c-2.4-1.2-5.1-1.9-8.1-1.9c-1.8,0-3.7,0.1-5.5,0.4
		c-1.9,0.3-3.4,0.8-4.7,1.4l-0.7-2.8c1.8-0.8,3.7-1.3,5.8-1.6c2-0.3,3.7-0.5,5-0.5c3.7,0,7,0.8,9.9,2.3c2.9,1.5,5.2,3.8,6.9,6.7
		C465.2,62.7,466,66.4,466,70.7z"/>
	<path d="M511.7,93.7c0,2-0.5,3.6-1.7,4.8c-1.2,1.2-2.6,2-4.4,2.5c-1.8,0.5-3.6,0.8-5.5,0.8c-4.2,0-7.2-0.7-9-2
		c-1.8-1.3-2.7-3-2.7-5.1c0-0.4,0-0.8,0.1-1.3c0.1-0.5,0.2-0.9,0.5-1.3l2.6,0.4c-0.2,0.5-0.3,1.2-0.3,1.8c0,1,0.3,1.8,0.9,2.4
		c0.6,0.6,1.4,1,2.3,1.4c0.9,0.3,1.9,0.5,2.9,0.6c1,0.1,1.9,0.2,2.7,0.2c2.6,0,4.6-0.5,6.1-1.4c1.5-0.9,2.2-2.2,2.2-3.7
		c0-1-0.3-1.9-0.8-2.4c-0.6-0.6-1.3-1-2.1-1.2c-0.9-0.2-1.7-0.3-2.5-0.3h-6.7v-2.7h2.8c3.1,0,5.8-0.5,8.2-1.5c2.4-1,4.2-2.6,5.5-4.7
		c1.3-2.1,2-4.7,2-7.9c0-2.5-0.4-4.6-1.2-6.3c-0.8-1.7-1.9-3-3.3-4c-1.4-1-2.9-1.7-4.6-2.1c-1.7-0.4-3.4-0.6-5.2-0.6
		c-4,0-7.2,1.1-9.6,3.3c-2.4,2.2-3.6,5.2-3.6,8.9c0,3.1,0.8,5.4,2.3,7.1c1.5,1.6,3.6,2.4,6.3,2.4c1.6,0,2.8-0.3,3.6-1
		c0.8-0.7,1.4-1.5,1.7-2.4c0.3-0.9,0.4-1.8,0.4-2.6v-7.3l2.9-0.1v8c0,2.2-0.7,4.2-2.1,5.8c-1.4,1.7-3.6,2.5-6.7,2.5
		c-3.7,0-6.5-1.2-8.5-3.5c-1.9-2.3-2.9-5.3-2.9-9.1c0-3.2,0.7-5.9,2.2-8.2c1.5-2.2,3.5-3.9,5.9-5.1c2.5-1.2,5.1-1.7,7.9-1.7
		c3.4,0,6.3,0.6,8.9,1.8c2.6,1.2,4.6,3,6,5.3c1.4,2.4,2.1,5.2,2.1,8.6c0,4.4-1,7.7-2.9,10.1c-1.9,2.4-4.4,4.1-7.3,5.2
		c1.5,0.4,2.7,1.1,3.4,2.2C511.4,91.6,511.7,92.6,511.7,93.7z"/>
	<path d="M543.8,81.1c0,2-0.5,3.8-1.4,5.4c-1,1.6-2.2,2.8-3.8,3.7c-1.6,0.9-3.3,1.3-5.1,1.3c-2.7,0-4.8-0.5-6.3-1.5
		c-1.5-1-2.7-2.2-3.4-3.6c-0.7-1.5-1.2-2.9-1.4-4.5c-0.2-1.5-0.3-2.8-0.3-3.9c0-3.6,0.5-6.6,1.5-9s3-3.8,5.8-4.2h4.4v-0.9
		c0-2.7-1.2-4.1-3.6-4.1c-1.5,0-2.4,0.5-3,1.6c-0.5,1-0.8,2.3-0.8,3.7h-2.7c0-5.3,2.2-8,6.5-8c4,0,6.1,1.7,6.1,5
		c0.5-1.6,1.5-2.8,3.1-3.7c1.5-0.9,3.2-1.4,5-1.4c7.3,0,11,5.7,11,17.1c0,2.1-0.2,4.2-0.7,6.3c-0.5,2.1-1.3,3.9-2.3,5.6
		c-1,1.7-2.3,3-3.8,4c-1.5,1-3.4,1.5-5.4,1.5l-1.8-0.1v-2.7l1.8,0.1c1.6,0,3.1-0.5,4.5-1.6c1.4-1.1,2.6-2.7,3.4-4.8
		c0.9-2.1,1.3-4.6,1.3-7.4c0-2-0.1-4-0.2-5.7c-0.2-1.8-0.5-3.4-1.1-4.8c-0.5-1.4-1.4-2.5-2.5-3.3c-1.2-0.8-2.7-1.2-4.7-1.2
		c-2.2,0-3.9,0.9-5.1,2.8c-1.2,1.9-2.2,4.5-3,8h1.8c2.4,0,4.1,1,5,2.9C543.3,75.6,543.8,78.1,543.8,81.1z M524.4,78.8
		c0,2.8,0.7,5.2,2.2,7.1c1.5,1.9,3.6,2.9,6.4,2.9c2.3,0,4.2-0.7,5.8-2.2c1.5-1.5,2.3-3.3,2.3-5.6c0-1.9-0.1-3.4-0.3-4.5
		c-0.2-1.2-0.8-2-1.6-2.5c-0.9-0.5-2.2-0.8-4.1-0.8l-0.5,3.3h-2.2c0-0.6,0-1.3,0.1-2c0-0.7,0.1-1.6,0.3-2.7c0.2-1.1,0.4-2.5,0.8-4.4
		h-4.9C525.8,68.4,524.4,72.1,524.4,78.8z"/>
	<path d="M591.6,83.3c0,2.9-0.7,5.4-2.1,7.7c-1.4,2.3-3.3,4.1-5.6,5.4c-2.3,1.3-4.9,2-7.7,2c-3.9,0-7.1-0.9-9.8-2.7s-4.6-4.2-6-7.2
		s-2-6.6-2-10.6c0-3.8,0.6-7.3,1.8-10.4c1.2-3.1,3.1-5.6,5.6-7.5c2.5-1.9,5.8-2.8,9.7-2.8c4.8,0,8.5,1.3,11.2,3.9
		c2.7,2.6,4,6,4,10.1c0,3.9-1,7.1-3,9.5c-2,2.4-4.7,3.6-8,3.6c-2.4,0-4.2-0.5-5.6-1.4c-1.4-0.9-2.4-2.1-2.9-3.4
		c-0.6-1.4-0.9-2.7-0.9-4c0-0.5,0.1-1.2,0.2-1.9c0.1-0.7,0.4-1.6,0.8-2.6H568V68h13.9v3l-7.3-0.1c-0.5,0.7-0.8,1.4-0.9,2.3
		c-0.2,0.8-0.2,1.5-0.2,2.1c0,1.9,0.6,3.4,1.9,4.4c1.2,1,2.8,1.5,4.8,1.5c2.4,0,4.3-0.9,5.6-2.8s2-4.2,2-7.2c0-2.4-0.6-4.4-1.7-6.1
		c-1.2-1.7-2.7-2.9-4.6-3.8c-1.9-0.9-3.9-1.3-6.2-1.3c-3.1,0-5.6,0.8-7.7,2.4c-2,1.6-3.5,3.7-4.5,6.4c-1,2.7-1.5,5.7-1.5,9.1
		c0,3.3,0.5,6.2,1.6,8.8c1.1,2.6,2.7,4.6,4.9,6c2.2,1.5,4.9,2.2,8.2,2.2c2.3,0,4.3-0.5,6.2-1.5c1.9-1,3.3-2.4,4.4-4.1
		c1.1-1.7,1.6-3.7,1.6-5.9H591.6z"/>
	<path d="M634.9,104.3h-3.3V91.6H626c-3.9,0-7-0.6-9.4-1.7c-2.4-1.2-4.1-2.7-5.2-4.8c-1.1-2-1.6-4.3-1.6-6.8c0-3,0.7-5.6,2.1-7.5
		c1.4-2,3.1-3.5,5.3-4.5c2.1-1,4.4-1.5,6.7-1.5h7.8c0-1.6-0.7-2.8-2.2-3.6s-3.3-1.2-5.5-1.2c-0.6,0-1.4,0-2.3,0.1
		c-0.9,0.1-1.8,0.3-2.8,0.6c-0.9,0.3-1.7,0.8-2.3,1.4c-0.6,0.6-0.9,1.5-0.9,2.6l-2.9,1.2c-0.1-0.3-0.2-0.7-0.2-1.3
		c0-1.8,0.6-3.2,1.7-4.3c1.1-1.1,2.5-1.9,4.2-2.4c1.7-0.5,3.5-0.8,5.4-0.8c3.3,0,5.8,0.7,7.7,2c1.8,1.3,2.9,3.1,3.2,5.3
		c0.4-1.9,1.3-3.4,2.8-4.3c1.5-0.9,3.4-1.4,5.6-1.4v2.8c-1.8,0-3.2,0.3-4.3,0.8c-1,0.5-1.6,1.4-1.6,2.8c1.5,0,3,0.4,4.3,1.3
		c1.3,0.9,2,2.4,2,4.5c0,0.4-0.1,0.9-0.2,1.6c-0.1,0.7-0.5,1.4-1,2.2c-0.5,0.8-1.4,1.4-2.5,1.9c-1.2,0.5-2.8,0.8-4.8,0.8v11.3h4.9
		l-0.3,2.9h-4.6V104.3z M612.6,78.4c0,1.2,0.2,2.4,0.5,3.6c0.3,1.2,1,2.3,2,3.3c1,1,2.4,1.8,4.2,2.5c1.9,0.6,4.3,1,7.3,1h5V67.5h-8
		c-1.6,0-3.2,0.3-4.9,1c-1.7,0.6-3.1,1.7-4.3,3.3C613.2,73.3,612.6,75.5,612.6,78.4z M634.8,67.6v7.1c1.6,0,2.9-0.3,4.1-0.9
		c1.1-0.6,1.7-1.6,1.7-3c0-0.9-0.3-1.7-1-2.3c-0.7-0.6-1.8-1-3.4-1H634.8z"/>
	<path d="M669.6,81.1c0,2-0.5,3.8-1.4,5.4s-2.2,2.8-3.8,3.7c-1.6,0.9-3.3,1.3-5.1,1.3c-2.7,0-4.8-0.5-6.3-1.5
		c-1.5-1-2.7-2.2-3.4-3.6c-0.7-1.5-1.2-2.9-1.4-4.5c-0.2-1.5-0.3-2.8-0.3-3.9c0-3.6,0.5-6.6,1.5-9c1-2.4,3-3.8,5.8-4.2h4.4v-0.9
		c0-2.7-1.2-4.1-3.6-4.1c-1.5,0-2.4,0.5-3,1.6c-0.5,1-0.8,2.3-0.8,3.7h-2.7c0-5.3,2.2-8,6.5-8c4,0,6.1,1.7,6.1,5
		c0.5-1.6,1.5-2.8,3.1-3.7c1.5-0.9,3.2-1.4,5-1.4c7.3,0,11,5.7,11,17.1c0,2.1-0.2,4.2-0.7,6.3c-0.5,2.1-1.3,3.9-2.3,5.6
		c-1,1.7-2.3,3-3.8,4c-1.5,1-3.4,1.5-5.4,1.5l-1.8-0.1v-2.7l1.8,0.1c1.6,0,3.1-0.5,4.5-1.6c1.4-1.1,2.6-2.7,3.4-4.8
		c0.9-2.1,1.3-4.6,1.3-7.4c0-2-0.1-4-0.2-5.7c-0.2-1.8-0.5-3.4-1.1-4.8c-0.5-1.4-1.4-2.5-2.5-3.3c-1.2-0.8-2.7-1.2-4.7-1.2
		c-2.2,0-3.9,0.9-5.1,2.8c-1.2,1.9-2.2,4.5-3,8h1.8c2.4,0,4.1,1,5,2.9C669.1,75.6,669.6,78.1,669.6,81.1z M650.2,78.8
		c0,2.8,0.7,5.2,2.2,7.1c1.5,1.9,3.6,2.9,6.4,2.9c2.3,0,4.2-0.7,5.8-2.2c1.5-1.5,2.3-3.3,2.3-5.6c0-1.9-0.1-3.4-0.3-4.5
		c-0.2-1.2-0.8-2-1.6-2.5c-0.9-0.5-2.2-0.8-4.1-0.8l-0.5,3.3h-2.2c0-0.6,0-1.3,0.1-2c0-0.7,0.1-1.6,0.3-2.7s0.4-2.5,0.8-4.4h-4.9
		C651.6,68.4,650.2,72.1,650.2,78.8z"/>
	<path d="M709.3,77.7c0,3.4-0.6,6.2-1.8,8.3c-1.2,2.1-2.7,3.6-4.6,4.5c-1.9,0.9-3.8,1.4-5.8,1.4c-3,0-5.5-0.8-7.4-2.3
		c-2-1.6-3.4-3.6-4.4-6.1c-1-2.5-1.4-5.2-1.4-8.2c0-3.4,0.5-6.5,1.5-9.2c1-2.7,2.5-4.9,4.5-6.5c2-1.6,4.6-2.4,7.8-2.4
		c2.4,0,4.4,0.4,6.1,1.3c1.7,0.8,3.1,1.9,4,3.3c1,1.4,1.4,2.9,1.4,4.5h-3.3c-0.1-1.3-0.6-2.4-1.5-3.3c-0.8-0.9-1.8-1.6-3-2.1
		c-1.2-0.5-2.3-0.7-3.4-0.7c-2.4,0-4.3,0.7-6,2.1c-1.6,1.4-2.8,3.2-3.6,5.5c-0.8,2.3-1.2,4.7-1.2,7.3c0,2.4,0.4,4.7,1.1,6.8
		c0.7,2.1,1.9,3.8,3.4,5c1.5,1.2,3.4,1.9,5.7,1.9c1.9,0,3.4-0.5,4.7-1.5c1.3-1,2.2-2.3,2.9-4c0.7-1.6,1-3.4,1-5.2
		c0-2.1-0.5-3.7-1.5-4.9c-1-1.2-2.2-2-3.5-2.4c-1.4-0.5-2.7-0.7-4-0.7l-0.1-3.2c3.7,0,6.7,1,8.9,2.9
		C708.2,71.4,709.3,74.1,709.3,77.7z"/>
	<path d="M747.4,78.2c0,2.6-0.3,4.9-1,6.9c-0.7,2-1.7,3.6-3.2,4.8c-1.5,1.2-3.4,1.8-5.7,1.8c-0.9,0-1.9-0.1-2.9-0.4
		c-1-0.3-1.9-0.8-2.8-1.4c-0.8-0.6-1.4-1.5-1.7-2.6c-0.5,1-1.5,1.9-2.8,2.9c-1.3,1-3,1.5-4.9,1.5c-2.3,0-4.2-0.6-5.7-1.7
		c-1.5-1.2-2.6-2.7-3.3-4.8c-0.7-2-1.1-4.3-1.1-6.8c0-1.2,0.1-2.5,0.3-3.9c0.2-1.4,0.6-2.8,1.1-4.1c0.5-1.3,1.2-2.4,2-3.3h-4.4v-2.3
		h3.7v-0.5c0-1.1,0.3-2.2,0.8-3.3c0.6-1.1,1.5-2,2.7-2.7c1.2-0.7,2.7-1.1,4.5-1.1c2.2,0,3.9,0.5,5.1,1.4s1.9,2,2,3.1
		c0.1-0.3,0.4-0.8,1-1.6c0.5-0.7,1.3-1.4,2.4-2c1.1-0.6,2.5-1,4.2-1c1.8,0,3.2,0.3,4.4,1c1.1,0.7,2,1.5,2.5,2.4
		c0.5,0.9,0.8,1.8,0.8,2.7c0,0.9-0.2,1.7-0.6,2.3c-0.4,0.7-0.8,1.2-1.3,1.7c1.2,1.2,2.1,2.6,2.8,4.2
		C747.1,73.1,747.4,75.3,747.4,78.2z M715.1,78.3c0,3.6,0.6,6.3,1.9,7.9c1.3,1.7,3,2.5,5.2,2.5c1.6,0,2.9-0.4,3.9-1.2
		c1-0.8,1.7-1.8,2.1-3c0.4-1.2,0.6-2.5,0.6-3.7v-4.3h2.7v4.3c0,2.2,0.5,4,1.5,5.6c1,1.5,2.5,2.3,4.5,2.3c1.6,0,3-0.5,4-1.6
		c1.1-1,1.8-2.4,2.3-4c0.5-1.6,0.7-3.3,0.7-5.1c0-1.9-0.3-3.6-0.8-5.3c-0.5-1.7-1.4-3-2.5-4c-1.1-1-2.6-1.6-4.4-1.6h-17.8
		c-0.1,0-0.6,0.4-1.3,1.1s-1.4,1.9-2,3.6C715.4,73.5,715.1,75.6,715.1,78.3z M723.2,59.9c-2,0-3.4,0.5-4.2,1.4
		c-0.8,0.9-1.2,2.1-1.2,3.5h10.6c0-1.6-0.5-2.8-1.4-3.7C726.1,60.3,724.8,59.9,723.2,59.9z M737.7,64.8c0.6,0,1.4,0.1,2.3,0.2
		c0.9,0.2,1.6,0.4,2.2,0.6c0.5-0.7,0.7-1.5,0.7-2.2c0-1.1-0.5-2-1.4-2.6c-0.9-0.6-2.1-0.9-3.4-0.9c-1.6,0-3,0.4-4.1,1.3
		c-1.2,0.9-1.8,2.1-1.8,3.6H737.7z"/>
	<path d="M743.3,58.4h-3.1v-12h3.1V58.4z"/>
	<path d="M792.6,89.6c-1,0.6-2.3,1.1-3.9,1.5c-1.6,0.4-3.5,0.6-5.7,0.6c-1.4,0-2.7-0.1-3.9-0.3c-0.1,0.5-0.2,1.1-0.3,1.6
		c-0.1,0.5-0.1,1,0,1.5c0.1,1.9,0.7,3.3,1.8,4.3c1.1,1,2.9,1.5,5.2,1.5c2.4,0,4.3-0.6,5.7-1.8c1.4-1.2,2-3.1,1.8-5.5h3.1
		c0,3.2-1,5.8-3,7.6c-2,1.9-4.6,2.8-7.9,2.8c-3.1,0-5.6-0.8-7.4-2.3c-1.9-1.5-2.8-3.6-2.8-6.3c0-0.7,0.1-1.4,0.3-2.1
		c0.2-0.7,0.4-1.3,0.6-1.8c-3.1-0.8-5.5-2.3-7.3-4.4c-1.8-2.1-2.7-4.9-2.7-8.5c0-2.2,0.4-4.3,1.3-6.4c0.9-2,2.3-3.7,4.3-4.9
		c2-1.3,4.7-1.9,8.1-1.9h8.6c0-1.3-0.4-2.3-1.3-3c-0.9-0.7-2-1.2-3.4-1.5c-1.4-0.3-2.8-0.4-4.2-0.4c-2.3,0-4.2,0.3-5.7,0.9
		c-1.5,0.6-2.4,1.8-2.6,3.6l-2.6,0.6c0-1.9,0.5-3.5,1.6-4.7c1-1.2,2.4-2,4.1-2.5c1.7-0.5,3.5-0.8,5.4-0.8c3.7,0,6.6,0.8,8.8,2.3
		c2.2,1.5,3.3,4.3,3.3,8.2h-11.9c-1.5,0-3.1,0.3-4.7,0.8c-1.6,0.5-2.9,1.5-4,2.8c-1.1,1.3-1.6,3.2-1.6,5.7c0,3,0.6,5.4,1.8,7.1
		c1.2,1.7,2.8,2.9,5,3.6c2.1,0.7,4.6,1.1,7.5,1.1c1.2,0,2.5-0.2,4-0.5s2.7-0.8,3.5-1.4L792.6,89.6z"/>
	<path d="M801,83.1h-2.8V71c0-8,3.3-12.4,9.8-13.1l5.6-0.6c0.3,0,0.7-0.1,1-0.1h0.3c0.2,0,0.4,0,0.6,0h2l0.1,2.6l-2.4,0.1
		c-2.6,0.1-4.7,1.4-6.2,3.9c-1.5,2.5-2.3,6.3-2.3,11.2c0,4.7,0.8,8.1,2.5,10.3c1.7,2.2,4.1,3.3,7.4,3.3c3.2,0,5.5-1,6.9-3.1
		c1.4-2.1,2.1-4.9,2.1-8.4c0-1.9-0.4-3.3-1.2-4.4c-0.8-1.1-2-1.7-3.5-1.8l-2.5-0.1V76h-3v-5.8c0.5-4.6,1.7-7.9,3.6-10
		c2-2,4.9-3,8.9-3c3.1,0,5.6,0.8,7.4,2.3c1.8,1.5,3.2,3.6,3.9,6.2c0.8,2.6,1.2,5.5,1.2,8.8c0,5.5-1.1,9.8-3.2,12.8
		c-2.2,3-5.7,4.5-10.7,4.5l0.7-2.8c3,0,5.5-1,7.4-3.1c1.9-2,2.8-5.6,2.8-10.6c0-3.1-0.4-5.8-0.9-8.1c-0.6-2.3-1.6-4-3-5.2
		s-3.5-1.8-6.2-1.8c-2.5,0-4.5,0.6-5.8,1.8c-1.4,1.2-2.3,3.3-2.9,6.3l2.6,0.1c2.4,0.1,4.2,1,5.5,2.7c1.3,1.7,1.9,3.8,1.9,6.5
		c0,4.4-1,7.8-3.1,10.3c-2.1,2.4-5.4,3.7-10,3.7c-8,0-12-5.5-12-16.6c0-6.7,1.4-11.5,4.1-14.5c-2.2,0.5-3.9,1.6-5,3.6
		c-1.1,1.9-1.7,4.2-1.7,6.8V83.1z"/>
	<path d="M882.1,74.7c0,3.3-0.3,6.2-1,8.8c-0.7,2.6-1.8,4.6-3.5,6c-1.7,1.5-3.9,2.2-6.8,2.2l0.4-2.7c1.3,0,2.6-0.4,3.8-1.2
		s2.2-2.2,3.1-4.2c0.8-2,1.2-4.8,1.2-8.3c0-5-1-8.8-3-11.4c-2-2.6-5-3.9-9-3.9c-1.6,0-3.4,0.4-5.3,1.3c-1.9,0.8-3.3,1.8-4.4,2.9v0.8
		l2.4,0.1c2.7,0.1,4.9,0.8,6.6,2.1c1.7,1.3,2.9,3,3.6,5.1c0.8,2.1,1.2,4.4,1.2,6.8c0,2.2-0.3,4.2-0.9,6.2c-0.6,1.9-1.6,3.5-2.9,4.7
		c-1.3,1.2-3.1,1.8-5.4,1.8c-2.8,0-4.7-1.2-5.8-3.7c-0.4,1.1-1,2-1.9,2.7c-0.9,0.6-2,1-3.3,1c-2.3,0-4.1-0.8-5.4-2.5
		c-1.3-1.7-2-3.7-2-6.2c0-1,0.1-1.9,0.3-2.7c0.2-0.8,0.5-1.5,0.8-2.1h-3v-2.3l13.2-11.8l0.1-1.1c0-1-0.3-1.7-1.1-2.2
		c-0.8-0.5-1.5-0.7-2.2-0.7c-1.2,0-2.2,0.3-2.8,1c-0.7,0.7-1.1,1.5-1.4,2.4c-0.2,1-0.4,1.9-0.4,2.7h-2.8c0-1.2,0.2-2.6,0.6-4
		c0.4-1.4,1.1-2.6,2.2-3.6c1-1,2.5-1.5,4.4-1.5c1.5,0,2.7,0.4,3.7,1.1c1,0.7,1.7,1.7,2,3c1.4-1.2,3-2.2,4.8-3s3.7-1.1,5.5-1.1
		c2.9,0,5.2,0.6,7.1,1.7c1.9,1.1,3.3,2.6,4.4,4.4c1,1.8,1.8,3.7,2.2,5.7S882.1,72.9,882.1,74.7z M846.6,82.7c0,1.5,0.3,2.6,0.8,3.5
		c0.5,0.9,1.2,1.5,1.9,1.9c0.7,0.4,1.4,0.6,2.1,0.6c1,0,1.9-0.4,2.7-1.1c0.8-0.7,1.2-1.7,1.2-3.1l0.1-7.5h2.6l0.1,7.6
		c0,1.2,0.5,2.2,1.4,3c1,0.7,2.1,1.1,3.3,1.1c1.5,0,2.6-0.5,3.5-1.5c0.9-1,1.6-2.2,2-3.8c0.5-1.5,0.7-3.1,0.7-4.7
		c0-3.3-0.8-6-2.3-8.2c-1.5-2.2-3.8-3.3-6.7-3.3l-4.6-0.1l-9.2,8.2h2v2.2c-0.5,0.5-0.9,1.2-1.2,2.1
		C846.7,80.8,846.6,81.8,846.6,82.7z"/>
	<path d="M917.9,72.9c0,3.5-0.6,6.7-1.9,9.5c-1.3,2.8-3.1,5.1-5.6,6.7c-2.4,1.7-5.5,2.5-9,2.5c-3.3,0-6.1-0.7-8.5-2.1
		c-2.4-1.4-4.3-3.4-5.6-6c-1.3-2.6-2-5.7-2-9.1c0-2.4,0.5-4.6,1.4-6.9c1-2.2,2.3-4.2,4.1-5.9c1.8-1.7,3.9-3,6.4-3.9
		c3.9-1.4,6.7-2.9,8.6-4.7c1.9-1.8,2.8-3.2,2.8-4.4h3.7c0,1.1-0.3,2.1-0.8,3c-0.5,0.9-1.2,1.6-1.8,2.1c-1,0.8-1.9,1.4-2.8,2
		c-0.9,0.5-1.9,1-2.8,1.5c2.5,0.2,4.9,0.9,7,2.2c2.1,1.3,3.8,3.1,5.1,5.4C917.2,67,917.9,69.7,917.9,72.9z M888.2,74.4
		c0,3,0.6,5.6,1.8,7.7c1.2,2.1,2.8,3.8,4.9,4.9c2,1.1,4.2,1.7,6.5,1.7c4.4,0,7.7-1.3,10.1-4c2.4-2.7,3.6-6.4,3.6-11.2
		c0-2.8-0.6-5.2-1.7-7.3c-1.1-2.1-2.7-3.6-4.6-4.8c-2-1.1-4.2-1.7-6.7-1.7c-2.6,0-4.9,0.6-7,1.7c-2.1,1.2-3.8,2.8-5,5
		C888.8,68.7,888.2,71.3,888.2,74.4z"/>
	<path d="M946.9,77.8c0,9.2-4.4,13.7-13.3,13.7c-3.7,0-6.6-0.9-8.7-2.8c-2.1-1.9-3.2-4.8-3.3-8.9v-8.9h2.5c0,0.6,0.2,1,0.6,1.4
		c0.4,0.3,1.2,0.5,2.3,0.5c0.5,0,1-0.1,1.5-0.4c0.5-0.2,0.9-0.6,1.3-1.1l1.8-3.1l2.2-4.2c-0.1-1.2-0.5-2.2-1.2-3s-1.6-1.1-3-1.1
		c-1.8,0-3,0.6-3.6,1.8c-0.6,1.2-0.8,2.5-0.4,4l-2.6,0.7c-0.7-2.9-0.3-5.2,1.1-6.9c1.4-1.7,3.3-2.5,5.7-2.5c1.5,0,2.8,0.4,3.8,1.2
		c1,0.8,1.7,1.8,1.9,3.1c1.3-1.3,2.7-2.4,4.2-3.1c1.5-0.8,3.5-1.2,6.2-1.2c2.7,0,5,0.5,6.8,1.5c1.8,1,3.2,2.4,4.3,4.1
		c1.1,1.7,1.8,3.6,2.2,5.7c0.4,2.1,0.6,4.2,0.6,6.4c0,4.3-0.5,7.7-1.5,10.1c-1,2.4-2.5,4.1-4.5,5c-2,1-4.5,1.4-7.5,1.4l0.1-2.7
		c2.3,0,4.2-0.5,5.8-1.4c1.6-0.9,2.8-2.4,3.6-4.4c0.8-2,1.2-4.8,1.2-8.3c0-5.1-1-8.9-3-11.2c-2-2.3-4.8-3.5-8.4-3.5
		c-3.9,0-6.7,1.4-8.6,4.1l-1,1.4h2.2C944.1,65.6,946.9,69.7,946.9,77.8z M924.4,79.6c0,3.2,0.8,5.5,2.5,6.9c1.7,1.5,4,2.2,7,2.2
		c3.4,0,6-1,7.5-3.1c1.6-2.1,2.4-4.7,2.4-7.8c0-3.4-0.6-5.9-1.9-7.5c-1.3-1.7-3.2-2.5-5.9-2.5h-0.5l-0.4,0.1l-2,3.5
		c-0.7,1.3-1.5,2.3-2.4,3c-0.9,0.7-2.2,1.1-3.8,1.1c-0.3,0-0.6,0-0.9-0.1c-0.3,0-0.5-0.1-0.6-0.1l-0.4-0.1c-0.1,0-0.2-0.1-0.2-0.1
		c-0.1,0-0.1,0-0.2-0.1V79.6z"/>
	<path d="M196.2,137.2c3.9,0,7.2,0.8,10,2.4c2.8,1.6,5,4,6.6,7.1c1.6,3.1,2.3,6.8,2.3,11.2c0,6.3-1.5,11.1-4.4,14.6
		c-2.9,3.4-7.4,5.2-13.3,5.2c-4.4,0-8-1.2-10.6-3.7c-2.6-2.5-3.9-5.7-3.9-9.8c0-2.8,0.6-4.9,1.7-6.3c1.2-1.4,2.7-2.4,4.8-2.9
		c2-0.5,4.3-0.8,6.8-0.8l4.1,0.1c0-3.8-2.2-5.7-6.5-5.7c-4,0-6.1,2-6.1,6.1h-3.1v-0.3c0-3.1,0.8-5.3,2.4-6.6c1.6-1.3,3.9-2,6.7-2
		c3.5,0,6,0.9,7.5,2.8c1.5,1.9,2.1,4.7,2,8.4h-7.1c-2.8,0-5,0.3-6.5,0.8c-1.5,0.5-2.6,1.3-3.2,2.4c-0.6,1.1-0.9,2.5-0.9,4.2
		c0,1.8,0.5,3.5,1.4,5c1,1.5,2.3,2.7,4.1,3.7c1.8,0.9,3.9,1.4,6.4,1.5c1.7,0,3.4-0.2,5.2-0.7c1.7-0.5,3.3-1.4,4.7-2.6
		c1.4-1.2,2.6-2.9,3.5-4.9c0.9-2.1,1.3-4.6,1.3-7.7c0-6-1.3-10.6-4-13.7c-2.7-3.1-6.8-4.7-12.2-4.7c-2.4,0-4.5,0.2-6.3,0.6
		c-1.8,0.4-3.6,0.9-5.4,1.5l-0.5-2.8c1.7-0.5,3.6-1.1,5.5-1.5C191.2,137.4,193.5,137.2,196.2,137.2z"/>
	<path d="M252.5,169.3c0,2.9-0.7,5.4-2.1,7.7c-1.4,2.3-3.3,4.1-5.6,5.4c-2.3,1.3-4.9,2-7.7,2c-3.9,0-7.1-0.9-9.8-2.7
		c-2.7-1.8-4.6-4.2-6-7.2c-1.3-3.1-2-6.6-2-10.6c0-3.8,0.6-7.3,1.8-10.4s3.1-5.6,5.6-7.5c2.5-1.9,5.8-2.8,9.7-2.8
		c4.8,0,8.5,1.3,11.2,3.9c2.7,2.6,4,6,4,10.1c0,3.9-1,7.1-3,9.5c-2,2.4-4.7,3.6-8,3.6c-2.4,0-4.2-0.5-5.6-1.4
		c-1.4-0.9-2.4-2.1-2.9-3.4c-0.6-1.4-0.9-2.7-0.9-4c0-0.5,0.1-1.2,0.2-1.9c0.1-0.7,0.4-1.6,0.8-2.6h-3.3V154h13.9v3l-7.3-0.1
		c-0.5,0.7-0.8,1.4-0.9,2.3c-0.2,0.8-0.2,1.5-0.2,2.1c0,1.9,0.6,3.4,1.9,4.4c1.2,1,2.8,1.5,4.8,1.5c2.4,0,4.3-0.9,5.6-2.8
		c1.3-1.8,2-4.2,2-7.2c0-2.4-0.6-4.4-1.7-6.1c-1.2-1.7-2.7-2.9-4.6-3.8c-1.9-0.9-3.9-1.3-6.2-1.3c-3.1,0-5.6,0.8-7.6,2.4
		c-2,1.6-3.5,3.7-4.5,6.4c-1,2.7-1.5,5.7-1.5,9.1c0,3.3,0.5,6.2,1.6,8.8c1.1,2.6,2.7,4.6,4.9,6c2.2,1.5,4.9,2.2,8.2,2.2
		c2.3,0,4.3-0.5,6.2-1.5c1.9-1,3.3-2.4,4.4-4.1c1.1-1.7,1.6-3.7,1.6-5.9H252.5z"/>
	<path d="M269.5,160.7c0,4.4-0.6,7.7-1.9,10.2c-1.3,2.4-3,4.1-5.2,5.1c-2.2,1-4.8,1.5-7.6,1.5l0.1-3.1l2-0.1c2.5-0.1,4.4-0.8,5.8-2
		c1.4-1.2,2.4-2.9,3-4.9c0.6-2,0.9-4.1,0.9-6.3c0-3.4-0.4-6.2-1.3-8.2c-0.8-2-2-3.4-3.4-4.3c-1.5-0.9-3.1-1.3-4.9-1.3h-2v-2.9l3,0.1
		c3.6,0.1,6.4,1.5,8.5,4.2C268.4,151.5,269.5,155.5,269.5,160.7z"/>
	<path d="M298.1,163.7c0,3.4-0.6,6.2-1.8,8.3c-1.2,2.1-2.7,3.6-4.6,4.5c-1.9,0.9-3.8,1.4-5.8,1.4c-3,0-5.5-0.8-7.4-2.3
		c-1.9-1.6-3.4-3.6-4.4-6.1c-1-2.5-1.4-5.2-1.4-8.2c0-3.4,0.5-6.5,1.5-9.2c1-2.7,2.5-4.9,4.5-6.5c2-1.6,4.6-2.4,7.8-2.4
		c2.4,0,4.4,0.4,6.1,1.3c1.7,0.8,3.1,1.9,4,3.3c1,1.4,1.4,2.9,1.4,4.5h-3.3c-0.1-1.3-0.6-2.4-1.5-3.3c-0.8-0.9-1.8-1.6-3-2.1
		c-1.2-0.5-2.3-0.7-3.4-0.7c-2.4,0-4.3,0.7-6,2.1c-1.6,1.4-2.8,3.2-3.6,5.5c-0.8,2.3-1.2,4.7-1.2,7.3c0,2.4,0.4,4.7,1.1,6.8
		c0.7,2.1,1.9,3.8,3.4,5c1.5,1.2,3.4,1.9,5.7,1.9c1.9,0,3.4-0.5,4.7-1.5c1.3-1,2.2-2.3,2.9-4c0.7-1.6,1-3.4,1-5.2
		c0-2.1-0.5-3.7-1.5-4.9c-1-1.2-2.2-2-3.5-2.4c-1.4-0.5-2.7-0.7-4-0.7l-0.1-3.2c3.7,0,6.7,1,8.9,2.9
		C297,157.4,298.1,160.1,298.1,163.7z"/>
	<path d="M335.3,161.6c0,5.4-1.5,9.4-4.6,12.1c-3.1,2.7-7.1,4-12.2,4c-3.1,0-5.8-0.6-8.2-1.8c-2.4-1.2-4.2-2.9-5.6-5.2
		c-1.4-2.3-2-5-2-8.1c0-3.8,0.9-6.7,2.8-8.7c1.9-2,4.3-3,7.2-3h4.3c0-1.5-0.5-2.6-1.4-3.5c-0.9-0.9-2.2-1.3-3.8-1.3
		c-1.3,0-2.4,0.4-3.3,1.1c-0.9,0.7-1.3,1.9-1.3,3.6l-2.7,0.2v-0.7c0-2.2,0.7-4,2-5.2c1.3-1.2,3.1-1.9,5.3-1.9c1.7,0,3.3,0.4,4.7,1.3
		c1.4,0.9,2.3,2.1,2.6,3.7c0.5-1.8,1.4-3,2.8-3.8c1.4-0.8,2.7-1.2,3.9-1.2c1.7,0,3.1,0.4,4.2,1.1c1.1,0.7,1.9,1.7,2.4,2.8
		c0.5,1.2,0.8,2.3,0.8,3.6v0.3l-2.5-0.3c0-1.6-0.4-2.8-1.3-3.6c-0.9-0.8-2.1-1.2-3.5-1.2c-1.5,0-2.7,0.5-3.6,1.5
		c-1,1-1.4,2.1-1.4,3.5h4.8c2.5,0,4.5,0.5,5.9,1.6c1.4,1.1,2.3,2.4,2.9,4.1C335,158.2,335.3,159.8,335.3,161.6z M305.4,162.3
		c0,2.9,0.7,5.3,2,7.1c1.3,1.8,3,3.2,5,4.1c2,0.9,4.1,1.3,6.3,1.3c4.1,0,7.5-1.1,10.1-3.2c2.6-2.2,3.9-5.2,3.9-9.3
		c0-3.3-0.6-5.6-1.9-6.9c-1.3-1.3-3.4-2-6.3-2h-11.1c-2.7,0-4.7,0.7-6,2.1C306,157,305.4,159.2,305.4,162.3z"/>
	<path d="M374.1,168.6c0,3.8-0.5,7.1-1.6,9.9c-1.1,2.8-2.8,4.9-5.3,6.4c-2.4,1.5-5.7,2.2-9.9,2.2c-4.1,0-7.5-0.9-10.1-2.6
		c-2.7-1.7-4.7-4.1-6-7.2s-1.9-6.6-1.9-10.7c0-1.8,0.2-3.6,0.5-5.6c0.3-2,1-3.8,1.9-5.5c0.9-1.7,2.2-3,3.8-3.9l0.2-2.1
		c0.2-2.2,1.1-3.8,2.5-4.9c1.5-1,3.1-1.5,5-1.5c2.4,0,4.1,1,4.9,3.1c0.4-1.2,1.1-2,2.3-2.4c1.2-0.4,2.4-0.6,3.5-0.6
		c2.1,0,3.7,0.8,4.8,2.4c1,1.6,1.6,3.4,1.6,5.3v0.6l-0.2,2.8h-21.8l-0.1,4.9c0.2,3.6,1,6.3,2.5,8.1c1.5,1.8,3.8,2.7,6.8,2.7
		c3.1,0,5.6-0.9,7.3-2.6c1.7-1.7,2.6-4.1,2.6-7h2.7v1.8c0,1.7-0.5,3.3-1.5,5c-1,1.6-2.4,3-4.3,4c-1.9,1.1-4.2,1.6-6.8,1.6
		c-3.9,0-6.9-1.3-8.9-3.8c-2-2.6-3-5.8-3-9.7v-4c-0.8,0.8-1.4,1.8-1.9,3.1c-0.5,1.3-0.9,2.6-1.1,4c-0.2,1.4-0.3,2.6-0.3,3.7
		c0,3.4,0.6,6.4,1.8,9.2c1.2,2.8,2.9,5,5.1,6.7c2.2,1.7,5,2.5,8.3,2.5c5,0,8.6-1.4,10.8-4.3c2.2-2.9,3.4-6.6,3.4-11.4H374.1z
		 M348.5,150.4l0.1,1h7.5l0.2-1.5c0-1.4-0.3-2.4-0.8-3c-0.5-0.6-1.5-0.9-3-0.9c-1.1,0-2.1,0.5-2.9,1.4
		C348.8,148.2,348.4,149.2,348.5,150.4z M359.6,150.6v0.8h7.7c0-1.4-0.3-2.7-1-3.8c-0.7-1.1-1.6-1.7-3-1.7c-1.1,0-2,0.5-2.7,1.5
		C360,148.4,359.6,149.4,359.6,150.6z"/>
	<path d="M425.3,157.6c0,3.9-0.7,7.4-2.1,10.5c-1.4,3.1-3.4,5.5-5.9,7.2c-2.5,1.7-5.5,2.6-8.9,2.6c-3.6,0-6.5-0.8-8.8-2.3
		c-2.3-1.5-4-3.6-5.1-6.3c-1.1-2.7-1.7-5.7-1.7-9.2c0-2.5,0.3-4.8,0.9-6.9c0.6-2,1.5-3.7,2.7-4.9c1.2-1.2,2.9-1.8,4.9-1.8
		c1.4,0,2.5,0.4,3.3,1.2c0.8,0.8,1.2,1.9,1.2,3.4c0,1-0.1,1.9-0.4,2.7c-0.3,0.8-0.6,1.6-0.8,2.4c-0.3,0.8-0.4,1.8-0.4,2.9
		c0,2.9,1.5,4.4,4.5,4.4c1.6,0,2.9-0.7,3.9-2.1c1-1.4,1.5-3.1,1.5-5.3c0-2.4-0.6-4.1-1.8-5.1c-1.2-1.1-2.8-1.6-4.9-1.6V147
		c2.9,0,5.2,0.7,6.9,2.1c1.7,1.4,2.6,3.8,2.6,7.2c0,1.9-0.3,3.6-1,5.1c-0.7,1.5-1.7,2.8-2.9,3.7c-1.3,0.9-2.8,1.4-4.6,1.4
		c-2.1,0-3.8-0.6-5.1-1.9c-1.3-1.2-1.9-2.9-1.9-5c0-1.8,0.2-3.3,0.7-4.5c0.5-1.2,0.7-2.3,0.7-3.4c0-1.5-0.7-2.2-2-2.2
		c-1.6,0-2.8,1-3.6,3c-0.8,2-1.3,4.7-1.3,8.3c0,4.3,1.1,7.7,3.2,10.4c2.2,2.7,5.2,4,9,4c2.9,0,5.5-0.8,7.7-2.3
		c2.2-1.5,3.9-3.6,5.1-6.4c1.2-2.7,1.8-5.9,1.8-9.6c0-5.1-1.4-9.1-4.2-12.2c-2.8-3-6.8-4.6-12-4.6c-2.4,0-4.5,0.2-6.3,0.6
		c-1.8,0.4-3.6,0.9-5.4,1.5l-0.5-2.8c1.7-0.5,3.6-1.1,5.5-1.5c2-0.5,4.3-0.7,6.9-0.7c5.8,0,10.3,1.8,13.7,5.3
		C423.6,145.9,425.3,151,425.3,157.6z"/>
	<path d="M443.3,137.2c3.9,0,7.2,0.8,10,2.4c2.8,1.6,5,4,6.6,7.1c1.6,3.1,2.3,6.8,2.3,11.2c0,6.3-1.5,11.1-4.4,14.6
		c-2.9,3.4-7.4,5.2-13.3,5.2c-4.4,0-8-1.2-10.6-3.7c-2.6-2.5-3.9-5.7-3.9-9.8c0-2.8,0.6-4.9,1.7-6.3c1.2-1.4,2.7-2.4,4.8-2.9
		c2-0.5,4.3-0.8,6.8-0.8l4.1,0.1c0-3.8-2.2-5.7-6.5-5.7c-4,0-6.1,2-6.1,6.1h-3.1v-0.3c0-3.1,0.8-5.3,2.4-6.6c1.6-1.3,3.9-2,6.7-2
		c3.5,0,6,0.9,7.5,2.8c1.5,1.9,2.1,4.7,2,8.4h-7.1c-2.8,0-5,0.3-6.5,0.8c-1.5,0.5-2.6,1.3-3.2,2.4c-0.6,1.1-0.9,2.5-0.9,4.2
		c0,1.8,0.5,3.5,1.4,5c1,1.5,2.3,2.7,4.1,3.7c1.8,0.9,3.9,1.4,6.4,1.5c1.7,0,3.4-0.2,5.2-0.7c1.7-0.5,3.3-1.4,4.7-2.6
		c1.4-1.2,2.6-2.9,3.5-4.9c0.9-2.1,1.3-4.6,1.3-7.7c0-6-1.3-10.6-4-13.7c-2.7-3.1-6.8-4.7-12.2-4.7c-2.4,0-4.5,0.2-6.3,0.6
		c-1.8,0.4-3.6,0.9-5.4,1.5l-0.5-2.8c1.7-0.5,3.6-1.1,5.5-1.5C438.3,137.4,440.6,137.2,443.3,137.2z"/>
	<path d="M492.4,163.8c0,9.2-4.4,13.7-13.3,13.7c-3.7,0-6.6-0.9-8.7-2.8c-2.1-1.9-3.2-4.8-3.3-8.9v-8.9h2.5c0,0.6,0.2,1,0.6,1.4
		c0.4,0.3,1.2,0.5,2.3,0.5c0.5,0,1-0.1,1.5-0.4c0.5-0.2,0.9-0.6,1.3-1.1l1.8-3.1l2.2-4.2c-0.1-1.2-0.5-2.2-1.2-3
		c-0.7-0.7-1.6-1.1-3-1.1c-1.8,0-3,0.6-3.6,1.8c-0.6,1.2-0.8,2.5-0.4,4l-2.6,0.7c-0.7-2.9-0.3-5.2,1.1-6.9c1.4-1.7,3.3-2.5,5.7-2.5
		c1.5,0,2.8,0.4,3.8,1.2c1,0.8,1.7,1.8,1.9,3.1c1.3-1.3,2.7-2.4,4.2-3.1c1.5-0.8,3.5-1.2,6.2-1.2c2.7,0,5,0.5,6.8,1.5
		c1.8,1,3.2,2.4,4.3,4.1c1.1,1.7,1.8,3.6,2.2,5.7c0.4,2.1,0.6,4.2,0.6,6.4c0,4.3-0.5,7.7-1.5,10.1c-1,2.4-2.5,4.1-4.5,5
		c-2,1-4.5,1.4-7.5,1.4l0.1-2.7c2.3,0,4.2-0.5,5.8-1.4c1.6-0.9,2.8-2.4,3.6-4.4c0.8-2,1.2-4.8,1.2-8.3c0-5.1-1-8.9-3-11.2
		c-2-2.3-4.8-3.5-8.4-3.5c-3.9,0-6.7,1.4-8.6,4.1l-1,1.4h2.2C489.6,151.6,492.4,155.7,492.4,163.8z M469.9,165.6
		c0,3.2,0.9,5.5,2.6,6.9c1.7,1.5,4,2.2,7,2.2c3.4,0,6-1,7.5-3.1c1.6-2.1,2.4-4.7,2.4-7.8c0-3.4-0.6-5.9-1.9-7.5
		c-1.3-1.7-3.2-2.5-5.9-2.5h-0.5l-0.4,0.1l-2,3.5c-0.7,1.3-1.5,2.3-2.4,3c-0.9,0.7-2.2,1.1-3.8,1.1c-0.3,0-0.6,0-0.9-0.1
		c-0.3,0-0.5-0.1-0.6-0.1l-0.4-0.1c-0.1,0-0.2-0.1-0.2-0.1c-0.1,0-0.1,0-0.2-0.1V165.6z"/>
	<path d="M522.4,160.7c0,4.4-0.6,7.7-1.9,10.2c-1.3,2.4-3,4.1-5.2,5.1c-2.2,1-4.8,1.5-7.6,1.5l0.1-3.1l2-0.1c2.5-0.1,4.4-0.8,5.8-2
		c1.4-1.2,2.4-2.9,3-4.9c0.6-2,0.9-4.1,0.9-6.3c0-3.4-0.4-6.2-1.3-8.2c-0.8-2-2-3.4-3.4-4.3c-1.5-0.9-3.1-1.3-4.9-1.3h-2v-2.9l3,0.1
		c3.6,0.1,6.4,1.5,8.5,4.2C521.4,151.5,522.4,155.5,522.4,160.7z"/>
	<path d="M566,163.7c0,3.4-0.6,6.2-1.8,8.3c-1.2,2.1-2.7,3.6-4.6,4.5c-1.9,0.9-3.8,1.4-5.8,1.4c-3,0-5.5-0.8-7.4-2.3
		c-1.9-1.6-3.4-3.6-4.4-6.1c-1-2.5-1.4-5.2-1.4-8.2c0-3.4,0.5-6.5,1.5-9.2c1-2.7,2.5-4.9,4.5-6.5c2-1.6,4.6-2.4,7.8-2.4
		c2.4,0,4.4,0.4,6.1,1.3c1.7,0.8,3.1,1.9,4,3.3c1,1.4,1.4,2.9,1.4,4.5h-3.3c-0.1-1.3-0.6-2.4-1.5-3.3c-0.8-0.9-1.8-1.6-3-2.1
		c-1.2-0.5-2.3-0.7-3.4-0.7c-2.4,0-4.3,0.7-6,2.1c-1.6,1.4-2.8,3.2-3.6,5.5c-0.8,2.3-1.2,4.7-1.2,7.3c0,2.4,0.4,4.7,1.1,6.8
		c0.7,2.1,1.9,3.8,3.4,5c1.5,1.2,3.4,1.9,5.7,1.9c1.9,0,3.4-0.5,4.7-1.5c1.3-1,2.2-2.3,2.9-4c0.7-1.6,1-3.4,1-5.2
		c0-2.1-0.5-3.7-1.5-4.9c-1-1.2-2.2-2-3.5-2.4c-1.4-0.5-2.7-0.7-4-0.7l-0.1-3.2c3.7,0,6.7,1,8.9,2.9
		C564.9,157.4,566,160.1,566,163.7z"/>
	<path d="M604.1,164.2c0,2.6-0.3,4.9-1,6.9c-0.7,2-1.7,3.6-3.2,4.8c-1.5,1.2-3.4,1.8-5.7,1.8c-0.9,0-1.9-0.1-2.9-0.4
		c-1-0.3-1.9-0.8-2.8-1.4c-0.8-0.6-1.4-1.5-1.7-2.6c-0.5,1-1.5,1.9-2.8,2.9c-1.3,1-3,1.5-4.9,1.5c-2.3,0-4.2-0.6-5.7-1.7
		c-1.5-1.2-2.6-2.7-3.3-4.8c-0.7-2-1.1-4.3-1.1-6.8c0-1.2,0.1-2.5,0.3-3.9c0.2-1.4,0.6-2.8,1.1-4.1c0.5-1.3,1.2-2.4,2-3.3h-4.4v-2.3
		h3.7v-0.5c0-1.1,0.3-2.2,0.8-3.3c0.6-1.1,1.5-2,2.7-2.7c1.2-0.7,2.7-1.1,4.5-1.1c2.2,0,3.9,0.5,5.1,1.4s1.9,2,2,3.1
		c0.1-0.3,0.4-0.8,1-1.6c0.5-0.7,1.3-1.4,2.4-2c1.1-0.6,2.5-1,4.2-1c1.8,0,3.2,0.3,4.4,1c1.1,0.7,2,1.5,2.5,2.4
		c0.5,0.9,0.8,1.8,0.8,2.7c0,0.9-0.2,1.7-0.6,2.3c-0.4,0.7-0.8,1.2-1.3,1.7c1.2,1.2,2.1,2.6,2.8,4.2
		C603.8,159.1,604.1,161.3,604.1,164.2z M571.8,164.3c0,3.6,0.6,6.3,1.9,7.9c1.3,1.7,3,2.5,5.2,2.5c1.6,0,2.9-0.4,3.9-1.2
		c1-0.8,1.7-1.8,2.1-3c0.4-1.2,0.6-2.5,0.6-3.7v-4.3h2.7v4.3c0,2.2,0.5,4,1.5,5.6c1,1.5,2.5,2.3,4.5,2.3c1.6,0,3-0.5,4-1.6
		c1.1-1,1.8-2.4,2.3-4c0.5-1.6,0.7-3.3,0.7-5.1c0-1.9-0.3-3.6-0.8-5.3c-0.5-1.7-1.4-3-2.5-4c-1.1-1-2.6-1.6-4.4-1.6h-17.8
		c-0.1,0-0.6,0.4-1.3,1.1s-1.4,1.9-2,3.6C572.2,159.5,571.8,161.6,571.8,164.3z M579.9,145.9c-2,0-3.4,0.5-4.2,1.4
		c-0.8,0.9-1.2,2.1-1.2,3.5h10.6c0-1.6-0.5-2.8-1.4-3.7C582.8,146.3,581.5,145.9,579.9,145.9z M594.4,150.8c0.6,0,1.4,0.1,2.3,0.2
		c0.9,0.2,1.6,0.4,2.2,0.6c0.5-0.7,0.7-1.5,0.7-2.2c0-1.1-0.5-2-1.4-2.6c-0.9-0.6-2.1-0.9-3.4-0.9c-1.6,0-3,0.4-4.1,1.3
		c-1.2,0.9-1.8,2.1-1.8,3.6H594.4z"/>
	<path d="M620.1,160.7c0,4.4-0.6,7.7-1.9,10.2c-1.3,2.4-3,4.1-5.2,5.1c-2.2,1-4.8,1.5-7.6,1.5l0.1-3.1l2-0.1c2.5-0.1,4.4-0.8,5.8-2
		c1.4-1.2,2.4-2.9,3-4.9c0.6-2,0.9-4.1,0.9-6.3c0-3.4-0.4-6.2-1.3-8.2c-0.8-2-2-3.4-3.4-4.3c-1.5-0.9-3.1-1.3-4.9-1.3h-2v-2.9l3,0.1
		c3.6,0.1,6.4,1.5,8.5,4.2C619,151.5,620.1,155.5,620.1,160.7z"/>
	<path d="M627.2,169.7h-2.9v-10.1c0-3.3,0.5-5.8,1.5-7.5c1-1.7,2.9-2.8,5.5-3.4c0.4-1.5,1.1-2.7,2.2-3.5c1.1-0.8,2.5-1.4,4-1.8
		c1.6-0.3,3.2-0.5,4.9-0.5c3.7,0,6.6,0.8,8.8,2.3c2.2,1.5,3.3,4.3,3.3,8.2h-11.9c-1.5,0-3.1,0.3-4.7,0.8c-1.6,0.5-2.9,1.5-4,2.8
		c-1.1,1.3-1.6,3.2-1.6,5.7c0,3,0.6,5.4,1.8,7.1c1.2,1.7,2.8,2.9,5,3.6c2.2,0.7,4.6,1.1,7.4,1.1c1.2,0,2.5-0.2,4-0.5
		s2.7-0.8,3.5-1.4l1.8,1.4v16h-25v-2.9l22.1-0.1v-10.5c-1,0.3-2,0.6-3.3,0.8c-1.2,0.2-2.6,0.3-4.1,0.3c-3.3,0-6.2-0.5-8.7-1.4
		c-2.5-1-4.5-2.4-5.9-4.4c-1.4-2-2.1-4.6-2.1-7.8c0-2.2,0.4-4.3,1.3-6.4c0.9-2,2.3-3.7,4.3-4.9c2-1.3,4.7-1.9,8.1-1.9h8.6
		c0-1.3-0.4-2.3-1.3-3c-0.9-0.7-2-1.2-3.4-1.5c-1.4-0.3-2.8-0.4-4.2-0.4c-2.5,0-4.5,0.4-5.9,1.2c-1.4,0.8-2.2,2-2.4,3.8v0.3
		c-2.9,0-4.7,0.8-5.6,2.5c-0.9,1.7-1.3,4-1.3,7L627.2,169.7z"/>
	<path d="M690.4,158.9c0,3.5-0.6,6.7-1.9,9.5c-1.3,2.8-3.1,5.1-5.6,6.7c-2.4,1.7-5.5,2.5-9,2.5c-3.3,0-6.1-0.7-8.5-2.1
		c-2.4-1.4-4.3-3.4-5.6-6c-1.3-2.6-2-5.7-2-9.1c0-2.4,0.5-4.6,1.4-6.9c1-2.2,2.3-4.2,4.1-5.9c1.8-1.7,3.9-3,6.4-3.9
		c3.9-1.4,6.7-2.9,8.6-4.7c1.9-1.8,2.8-3.2,2.8-4.4h3.7c0,1.1-0.3,2.1-0.8,3c-0.5,0.9-1.2,1.6-1.8,2.1c-1,0.8-1.9,1.4-2.8,2
		c-0.9,0.5-1.9,1-2.8,1.5c2.5,0.2,4.9,0.9,7,2.2c2.1,1.3,3.8,3.1,5.1,5.4C689.7,153,690.4,155.7,690.4,158.9z M660.6,160.4
		c0,3,0.6,5.6,1.8,7.7c1.2,2.1,2.8,3.8,4.9,4.9c2,1.1,4.2,1.7,6.5,1.7c4.4,0,7.7-1.3,10.1-4c2.4-2.7,3.6-6.4,3.6-11.2
		c0-2.8-0.6-5.2-1.7-7.3c-1.1-2.1-2.7-3.6-4.6-4.8c-2-1.1-4.2-1.7-6.7-1.7c-2.6,0-4.9,0.6-7,1.7c-2.1,1.2-3.8,2.8-5,5
		C661.3,154.7,660.6,157.3,660.6,160.4z"/>
	<path d="M707,168.3c0,3-0.4,5.3-1.3,6.9c-0.9,1.6-2.7,2.4-5.5,2.4c-4.4,0-6.6-3.1-6.6-9.3c0-6,2.6-13,7.7-20.8h-6.6v-2.7h10v2.6
		c-1.8,3-3.3,5.6-4.6,7.9c-1.2,2.3-2.1,4.4-2.7,6.5c-0.6,2.1-0.9,4.2-0.9,6.6c0,4.2,1.4,6.3,4.3,6.3c1.7,0,2.7-0.6,3.1-1.9
		c0.4-1.2,0.5-2.7,0.5-4.4v-0.9c0.7,0,1.3,0,1.7,0s0.7,0,0.9-0.1V168.3z"/>
	<path d="M752.7,175.6c-1,0.6-2.3,1.1-3.9,1.5c-1.6,0.4-3.5,0.6-5.7,0.6c-1.4,0-2.7-0.1-3.9-0.3c-0.1,0.5-0.2,1.1-0.3,1.6
		c-0.1,0.5-0.1,1,0,1.5c0.1,1.9,0.7,3.3,1.8,4.3c1.1,1,2.9,1.5,5.2,1.5c2.4,0,4.3-0.6,5.7-1.8c1.4-1.2,2-3.1,1.8-5.5h3.1
		c0,3.2-1,5.8-3,7.6c-2,1.9-4.6,2.8-7.9,2.8c-3.1,0-5.6-0.8-7.4-2.3c-1.9-1.5-2.8-3.6-2.8-6.3c0-0.7,0.1-1.4,0.3-2.1
		c0.2-0.7,0.4-1.3,0.6-1.8c-3.1-0.8-5.5-2.3-7.3-4.4c-1.8-2.1-2.7-4.9-2.7-8.5c0-2.2,0.4-4.3,1.3-6.4c0.9-2,2.3-3.7,4.3-4.9
		c2-1.3,4.7-1.9,8.1-1.9h8.6c0-1.3-0.4-2.3-1.3-3c-0.9-0.7-2-1.2-3.4-1.5c-1.4-0.3-2.8-0.4-4.2-0.4c-2.3,0-4.2,0.3-5.7,0.9
		c-1.5,0.6-2.4,1.8-2.6,3.6l-2.6,0.6c0-1.9,0.5-3.5,1.6-4.7c1-1.2,2.4-2,4.1-2.5c1.7-0.5,3.5-0.8,5.4-0.8c3.7,0,6.6,0.8,8.8,2.3
		c2.2,1.5,3.3,4.3,3.3,8.2h-11.9c-1.5,0-3.1,0.3-4.7,0.8c-1.6,0.5-2.9,1.5-4,2.8c-1.1,1.3-1.6,3.2-1.6,5.7c0,3,0.6,5.4,1.8,7.1
		c1.2,1.7,2.8,2.9,5,3.6c2.1,0.7,4.6,1.1,7.5,1.1c1.2,0,2.5-0.2,4-0.5s2.7-0.8,3.5-1.4L752.7,175.6z"/>
	<path d="M792.5,164.2c0,2.6-0.3,4.9-1,6.9s-1.7,3.6-3.2,4.8c-1.5,1.2-3.4,1.8-5.7,1.8c-0.9,0-1.9-0.1-2.9-0.4
		c-1-0.3-1.9-0.8-2.8-1.4c-0.8-0.6-1.4-1.5-1.7-2.6c-0.5,1-1.5,1.9-2.8,2.9c-1.3,1-3,1.5-4.9,1.5c-2.3,0-4.2-0.6-5.7-1.7
		c-1.5-1.2-2.6-2.7-3.3-4.8c-0.7-2-1.1-4.3-1.1-6.8c0-1.2,0.1-2.5,0.3-3.9c0.2-1.4,0.6-2.8,1.1-4.1c0.5-1.3,1.2-2.4,2-3.3h-4.4v-2.3
		h3.7v-0.5c0-1.1,0.3-2.2,0.9-3.3c0.6-1.1,1.5-2,2.7-2.7c1.2-0.7,2.7-1.1,4.5-1.1c2.2,0,3.9,0.5,5.1,1.4c1.2,1,1.9,2,2,3.1
		c0.1-0.3,0.4-0.8,1-1.6c0.5-0.7,1.3-1.4,2.4-2c1.1-0.6,2.5-1,4.2-1c1.8,0,3.2,0.3,4.4,1c1.1,0.7,2,1.5,2.5,2.4
		c0.5,0.9,0.8,1.8,0.8,2.7c0,0.9-0.2,1.7-0.6,2.3c-0.4,0.7-0.8,1.2-1.3,1.7c1.2,1.2,2.1,2.6,2.8,4.2
		C792.2,159.1,792.5,161.3,792.5,164.2z M760.2,164.3c0,3.6,0.6,6.3,1.9,7.9c1.3,1.7,3,2.5,5.2,2.5c1.6,0,2.9-0.4,3.9-1.2
		c1-0.8,1.7-1.8,2.1-3c0.4-1.2,0.6-2.5,0.6-3.7v-4.3h2.7v4.3c0,2.2,0.5,4,1.5,5.6c1,1.5,2.5,2.3,4.5,2.3c1.6,0,3-0.5,4-1.6
		c1.1-1,1.8-2.4,2.3-4c0.5-1.6,0.7-3.3,0.7-5.1c0-1.9-0.3-3.6-0.8-5.3c-0.5-1.7-1.4-3-2.5-4c-1.1-1-2.6-1.6-4.4-1.6h-17.8
		c-0.1,0-0.6,0.4-1.3,1.1c-0.7,0.7-1.4,1.9-2,3.6C760.5,159.5,760.2,161.6,760.2,164.3z M768.3,145.9c-2,0-3.4,0.5-4.2,1.4
		c-0.8,0.9-1.2,2.1-1.2,3.5h10.6c0-1.6-0.5-2.8-1.4-3.7C771.1,146.3,769.9,145.9,768.3,145.9z M782.8,150.8c0.6,0,1.4,0.1,2.3,0.2
		c0.9,0.2,1.6,0.4,2.2,0.6c0.5-0.7,0.7-1.5,0.7-2.2c0-1.1-0.5-2-1.4-2.6c-0.9-0.6-2.1-0.9-3.4-0.9c-1.6,0-3,0.4-4.1,1.3
		c-1.2,0.9-1.8,2.1-1.8,3.6H782.8z"/>
	<path d="M789.4,187.9h-27.7V185l24.9-0.1v-12l2.9-3.1V187.9z"/>
	<path d="M821.1,163.8c0,9.2-4.4,13.7-13.3,13.7c-3.7,0-6.6-0.9-8.7-2.8c-2.1-1.9-3.2-4.8-3.3-8.9v-8.9h2.5c0,0.6,0.2,1,0.6,1.4
		c0.4,0.3,1.2,0.5,2.3,0.5c0.5,0,1-0.1,1.5-0.4c0.5-0.2,0.9-0.6,1.3-1.1l1.8-3.1l2.2-4.2c-0.1-1.2-0.5-2.2-1.2-3s-1.6-1.1-3-1.1
		c-1.8,0-3,0.6-3.6,1.8c-0.6,1.2-0.8,2.5-0.4,4l-2.6,0.7c-0.7-2.9-0.3-5.2,1.1-6.9c1.4-1.7,3.3-2.5,5.7-2.5c1.5,0,2.8,0.4,3.8,1.2
		c1,0.8,1.7,1.8,1.9,3.1c1.3-1.3,2.7-2.4,4.2-3.1c1.5-0.8,3.5-1.2,6.2-1.2c2.7,0,5,0.5,6.8,1.5c1.8,1,3.2,2.4,4.3,4.1
		c1.1,1.7,1.8,3.6,2.2,5.7c0.4,2.1,0.6,4.2,0.6,6.4c0,4.3-0.5,7.7-1.5,10.1c-1,2.4-2.5,4.1-4.5,5c-2,1-4.5,1.4-7.5,1.4l0.1-2.7
		c2.3,0,4.2-0.5,5.8-1.4c1.6-0.9,2.8-2.4,3.6-4.4c0.8-2,1.2-4.8,1.2-8.3c0-5.1-1-8.9-3-11.2c-2-2.3-4.8-3.5-8.4-3.5
		c-3.9,0-6.7,1.4-8.6,4.1l-1,1.4h2.2C818.2,151.6,821.1,155.7,821.1,163.8z M798.5,165.6c0,3.2,0.8,5.5,2.5,6.9c1.7,1.5,4,2.2,7,2.2
		c3.4,0,6-1,7.5-3.1c1.6-2.1,2.4-4.7,2.4-7.8c0-3.4-0.6-5.9-1.9-7.5c-1.3-1.7-3.2-2.5-5.9-2.5h-0.5l-0.4,0.1l-2,3.5
		c-0.7,1.3-1.5,2.3-2.4,3c-0.9,0.7-2.2,1.1-3.8,1.1c-0.3,0-0.6,0-0.9-0.1c-0.3,0-0.5-0.1-0.6-0.1l-0.4-0.1c-0.1,0-0.2-0.1-0.2-0.1
		c-0.1,0-0.1,0-0.2-0.1V165.6z"/>
	<path d="M891.1,160.7c0,3.3-0.3,6.2-1,8.8c-0.7,2.6-1.8,4.6-3.5,6c-1.7,1.5-3.9,2.2-6.8,2.2l0.4-2.7c1.3,0,2.6-0.4,3.8-1.2
		c1.2-0.8,2.2-2.2,3.1-4.2c0.8-2,1.2-4.8,1.2-8.3c0-5-1-8.8-3-11.4c-2-2.6-5-3.9-9-3.9c-1.6,0-3.4,0.4-5.3,1.3
		c-1.9,0.8-3.3,1.8-4.4,2.9v0.8l2.4,0.1c2.7,0.1,4.9,0.8,6.6,2.1c1.7,1.3,2.9,3,3.6,5.1c0.8,2.1,1.2,4.4,1.2,6.8
		c0,2.2-0.3,4.2-0.9,6.2c-0.6,1.9-1.6,3.5-2.9,4.7c-1.3,1.2-3.1,1.8-5.4,1.8c-2.8,0-4.7-1.2-5.8-3.7c-0.4,1.1-1,2-1.9,2.7
		c-0.9,0.6-2,1-3.3,1c-2.3,0-4.1-0.8-5.4-2.5c-1.3-1.7-2-3.7-2-6.2c0-1,0.1-1.9,0.3-2.7c0.2-0.8,0.5-1.5,0.8-2.1h-3v-2.3l13.2-11.8
		l0.1-1.1c0-1-0.3-1.7-1.1-2.2c-0.8-0.5-1.5-0.7-2.2-0.7c-1.2,0-2.2,0.3-2.8,1c-0.7,0.7-1.1,1.5-1.4,2.4s-0.4,1.9-0.4,2.7h-2.8
		c0-1.2,0.2-2.6,0.6-4c0.4-1.4,1.1-2.6,2.2-3.6c1-1,2.5-1.5,4.4-1.5c1.5,0,2.7,0.4,3.7,1.1c1,0.7,1.7,1.7,2,3c1.4-1.2,3-2.2,4.8-3
		c1.8-0.7,3.7-1.1,5.5-1.1c2.9,0,5.2,0.6,7.1,1.7c1.9,1.1,3.3,2.6,4.4,4.4c1,1.8,1.8,3.7,2.2,5.7
		C890.9,156.9,891.1,158.9,891.1,160.7z M855.5,168.7c0,1.5,0.3,2.6,0.8,3.5c0.5,0.9,1.2,1.5,1.9,1.9c0.7,0.4,1.4,0.6,2.1,0.6
		c1,0,1.9-0.4,2.7-1.1c0.8-0.7,1.2-1.7,1.2-3.1l0.1-7.5h2.6l0.1,7.6c0,1.2,0.5,2.2,1.4,3s2.1,1.1,3.3,1.1c1.5,0,2.6-0.5,3.5-1.5
		c0.9-1,1.6-2.2,2-3.8c0.5-1.5,0.7-3.1,0.7-4.7c0-3.3-0.8-6-2.3-8.2c-1.5-2.2-3.8-3.3-6.7-3.3l-4.6-0.1l-9.2,8.2h2v2.2
		c-0.5,0.5-0.9,1.2-1.2,2.1C855.7,166.8,855.5,167.8,855.5,168.7z"/>
	<path d="M888.9,144.4h-3.1v-12h3.1V144.4z"/>
	<path d="M929.5,161.6c0,5.4-1.5,9.4-4.6,12.1c-3,2.7-7.1,4-12.2,4c-3,0-5.8-0.6-8.2-1.8c-2.4-1.2-4.3-2.9-5.6-5.2
		c-1.4-2.3-2-5-2-8.1c0-3.8,1-6.7,2.9-8.7c1.9-2,4.3-3,7.2-3h4.3c0-1.5-0.5-2.6-1.4-3.5c-0.9-0.9-2.2-1.3-3.8-1.3
		c-1.3,0-2.4,0.4-3.3,1.1c-0.9,0.7-1.3,1.9-1.3,3.6l-2.7,0.2v-0.7c0-2.2,0.7-4,2-5.2c1.3-1.2,3.1-1.9,5.3-1.9c1.7,0,3.3,0.4,4.7,1.3
		c1.4,0.9,2.3,2.1,2.6,3.7c0.5-1.8,1.4-3,2.8-3.8c1.4-0.8,2.7-1.2,3.9-1.2c1.7,0,3.1,0.4,4.2,1.1c1.1,0.7,1.9,1.7,2.4,2.8
		c0.5,1.2,0.8,2.3,0.8,3.6v0.3h-0.1l-1.6,1.5c1.4,1,2.4,2.4,2.9,4C929.3,158.2,929.5,159.8,929.5,161.6z M899.6,162.3
		c0,2.9,0.7,5.3,2,7.1c1.3,1.8,3,3.2,5,4.1c2,0.9,4.1,1.3,6.3,1.3c4.1,0,7.5-1.1,10.1-3.2c2.6-2.2,3.9-5.2,3.9-9.3
		c0-4-1-6.6-3.1-7.8l-5.1,4.9c0.2,0.5,0.3,0.9,0.3,1.3c0,0.4,0.1,0.8,0.1,1.4c0,2-0.6,3.6-1.7,4.7c-1.1,1.1-2.6,1.6-4.3,1.6
		s-3-0.3-3.9-1c-0.9-0.6-1.5-1.4-1.9-2.4c-0.3-1-0.5-1.9-0.5-2.9v-4.4l9.7,0.1l4.4-4.2c-0.6-0.1-1.4-0.1-2.2-0.1h-11.1
		c-2.7,0-4.7,0.7-6,2.1C900.3,157,899.6,159.2,899.6,162.3z M909.3,161.8c0,2.6,1.1,3.9,3.3,3.9c1.2,0,2.1-0.3,2.8-0.9
		c0.7-0.6,1.1-1.6,1.1-2.8c0-0.8-0.1-1.4-0.3-1.7h-6.9V161.8z M919.9,150.8c1.3,0,2.4,0.2,3.4,0.5l1.6-1.5c-0.1-1.3-0.6-2.3-1.5-3
		c-0.9-0.7-2-1-3.3-1c-1.5,0-2.7,0.5-3.6,1.5c-1,1-1.4,2.1-1.4,3.5H919.9z"/>
	<path d="M952.3,173.6c-1.5,2.7-3.9,4-7.3,4c-1.8,0-3.5-0.5-5-1.5c-1.5-1-2.7-2.6-3.6-5c-0.9-2.4-1.4-5.6-1.4-9.9
		c0-3.5,0.5-6.6,1.5-9.3c1-2.7,2.5-4.9,4.7-6.4c2.2-1.5,5-2.3,8.5-2.3c0.5,0,1,0,1.4,0.1c0.4,0,0.8,0.1,1.1,0.2v2.5l-2.9-0.1
		c-3.8,0-6.6,1.4-8.4,4.1c-1.9,2.8-2.8,6.6-2.8,11.4c0,4.6,0.7,7.9,2,10c1.4,2,3.2,3,5.6,3c1.7,0,3-0.5,3.9-1.6
		c0.9-1.1,1.4-2.5,1.4-4.2v-6.3h2.7v6.2c0,1.8,0.5,3.3,1.5,4.4c1,1.1,2.5,1.7,4.6,1.7c1.5,0,2.8-0.5,3.7-1.5c1-1,1.6-2.4,2.1-4.1
		c0.4-1.7,0.6-3.6,0.6-5.6c0-3.2-0.8-5.6-2.3-7.3c-1.5-1.7-4-2.6-7.3-2.6h-4.7c0-3.4,0.6-6,1.7-7.8c1.1-1.8,3.1-2.7,6-2.7
		c2.9,0,5,0.8,6.2,2.5c1.2,1.7,1.8,3.6,1.8,5.9h-2.7v-0.8c0-3.3-1.8-4.9-5.3-4.9c-3,0-4.5,1.7-4.5,5.1h2.4c2.1,0,4,0.4,5.7,1.2
		c1.7,0.8,3.1,2.1,4.1,3.9c1,1.8,1.5,4.2,1.5,7.2c0,4.6-0.8,8.2-2.3,10.6c-1.5,2.5-3.9,3.7-7.1,3.7h-0.1c-1.8,0-3.3-0.4-4.5-1.2
		C953.5,175.6,952.7,174.7,952.3,173.6z"/>
	<path d="M998.1,163.7c0,3.4-0.6,6.2-1.8,8.3c-1.2,2.1-2.7,3.6-4.6,4.5c-1.9,0.9-3.8,1.4-5.8,1.4c-3,0-5.5-0.8-7.4-2.3
		c-2-1.6-3.4-3.6-4.4-6.1c-1-2.5-1.4-5.2-1.4-8.2c0-3.4,0.5-6.5,1.5-9.2c1-2.7,2.5-4.9,4.5-6.5c2-1.6,4.6-2.4,7.8-2.4
		c2.4,0,4.4,0.4,6.1,1.3c1.7,0.8,3.1,1.9,4,3.3c1,1.4,1.4,2.9,1.4,4.5h-3.3c-0.1-1.3-0.6-2.4-1.5-3.3c-0.8-0.9-1.8-1.6-3-2.1
		c-1.2-0.5-2.3-0.7-3.4-0.7c-2.4,0-4.3,0.7-6,2.1c-1.6,1.4-2.8,3.2-3.6,5.5c-0.8,2.3-1.2,4.7-1.2,7.3c0,2.4,0.4,4.7,1.1,6.8
		c0.7,2.1,1.9,3.8,3.4,5c1.5,1.2,3.4,1.9,5.7,1.9c1.9,0,3.4-0.5,4.7-1.5c1.3-1,2.2-2.3,2.9-4c0.7-1.6,1-3.4,1-5.2
		c0-2.1-0.5-3.7-1.5-4.9c-1-1.2-2.2-2-3.5-2.4c-1.4-0.5-2.7-0.7-4-0.7l-0.1-3.2c3.7,0,6.7,1,8.9,2.9
		C996.9,157.4,998.1,160.1,998.1,163.7z"/>
	<path d="M1015.3,137.2c3.9,0,7.2,0.8,10,2.4c2.8,1.6,5,4,6.6,7.1c1.6,3.1,2.3,6.8,2.3,11.2c0,6.3-1.5,11.1-4.4,14.6
		c-2.9,3.4-7.4,5.2-13.3,5.2c-4.4,0-8-1.2-10.6-3.7c-2.6-2.5-3.9-5.7-3.9-9.8c0-2.8,0.6-4.9,1.7-6.3c1.2-1.4,2.7-2.4,4.8-2.9
		c2-0.5,4.3-0.8,6.8-0.8l4.1,0.1c0-3.8-2.2-5.7-6.5-5.7c-4,0-6.1,2-6.1,6.1h-3.1v-0.3c0-3.1,0.8-5.3,2.4-6.6c1.6-1.3,3.9-2,6.7-2
		c3.5,0,6,0.9,7.5,2.8c1.5,1.9,2.1,4.7,2,8.4h-7.1c-2.8,0-5,0.3-6.5,0.8c-1.5,0.5-2.6,1.3-3.2,2.4c-0.6,1.1-0.9,2.5-0.9,4.2
		c0,1.8,0.5,3.5,1.4,5c1,1.5,2.3,2.7,4.1,3.7c1.8,0.9,3.9,1.4,6.4,1.5c1.7,0,3.4-0.2,5.2-0.7c1.7-0.5,3.3-1.4,4.7-2.6
		s2.6-2.9,3.5-4.9c0.9-2.1,1.3-4.6,1.3-7.7c0-6-1.3-10.6-4-13.7s-6.8-4.7-12.2-4.7c-2.4,0-4.5,0.2-6.3,0.6c-1.8,0.4-3.6,0.9-5.4,1.5
		l-0.5-2.8c1.7-0.5,3.6-1.1,5.5-1.5C1010.3,137.4,1012.6,137.2,1015.3,137.2z"/>
	<path d="M1032.9,139.6c0,0.5-0.1,0.9-0.2,1.3c-0.1,0.4-0.2,0.6-0.2,0.8l-2.5-1.3c0-1.5-0.5-2.8-1.6-3.9c-1.1-1.1-2.5-2-4.4-2.7
		c-1.8-0.6-3.9-1-6.3-1c-1.5,0-3,0.1-4.5,0.3c-1.5,0.2-2.6,0.7-3.5,1.3c-0.9,0.7-1.4,1.6-1.4,2.8c0,0.5,0.1,1,0.4,1.6
		c0.3,0.6,0.5,1,0.7,1.4l-3.5,0.3c-0.2-0.5-0.4-1.1-0.6-1.8c-0.2-0.7-0.3-1.3-0.3-1.8c0-1.7,0.6-3.1,1.8-4.1s2.8-1.8,4.7-2.2
		c1.9-0.5,3.9-0.7,6.1-0.7c2.8,0,5.3,0.4,7.6,1.3c2.3,0.9,4.1,2,5.5,3.5C1032.2,136.1,1032.9,137.7,1032.9,139.6z"/>
	<path d="M1045.6,175.4c0,0.8-0.2,1.4-0.7,1.8c-0.5,0.4-1,0.6-1.8,0.6c-0.8,0-1.4-0.2-1.8-0.6c-0.5-0.4-0.7-1-0.7-1.8
		c0-0.8,0.2-1.4,0.7-1.8c0.5-0.5,1.1-0.7,1.8-0.7c0.7,0,1.3,0.2,1.8,0.7C1045.4,174.1,1045.6,174.7,1045.6,175.4z"/>
	<path d="M193.2,265.4h-2.9v-37.6l-9.2,6.7v-2.8l10.3-7.8h1.7V265.4z"/>
	<path d="M240.1,265.3h-21.4v-1.6l11.2-16.6c1.9-2.8,3.3-5.2,4.1-7.2c0.8-2,1.2-3.9,1.2-5.7c0-2.9-0.7-5-2.2-6.3
		c-1.5-1.2-3.7-1.8-6.6-1.8c-2.9,0-5.6,0.5-8.2,1.6v-2.7c1.1-0.5,2.4-0.8,3.9-1.1c1.5-0.2,3-0.4,4.5-0.4c3.6,0,6.4,0.8,8.5,2.4
		c2.1,1.6,3,4.3,3,8c0,2.2-0.5,4.3-1.4,6.5c-0.9,2.2-2.3,4.8-4.4,7.9l-9.8,14.4h17.7V265.3z"/>
	<path d="M285.3,254c0,3.6-1.2,6.4-3.5,8.4c-2.3,2-5.6,3-9.9,3c-1.5,0-3.1-0.1-4.6-0.4c-1.5-0.2-3-0.6-4.4-1.2v-2.5
		c1.5,0.5,3,0.9,4.6,1.2c1.5,0.3,3,0.4,4.5,0.4c3.4,0,5.9-0.8,7.8-2.3c1.8-1.5,2.7-3.8,2.7-6.7c0-2.8-0.9-5-2.6-6.6
		c-1.7-1.6-4.4-2.4-8.2-2.4h-3.8v-2.5h1.6c3.8,0,6.7-0.8,8.7-2.4c2-1.6,3-3.8,3-6.7c0-5.2-3-7.8-9.1-7.8c-1.5,0-2.9,0.1-4.2,0.4
		c-1.4,0.3-2.7,0.7-4,1.2v-2.5c1.1-0.5,2.4-0.9,3.9-1.1c1.5-0.2,3-0.4,4.5-0.4c3.9,0,6.8,0.9,8.8,2.7c2,1.8,3,4.3,3,7.5
		c0,2.4-0.7,4.6-2,6.3c-1.3,1.8-3.2,3-5.6,3.7C282.3,244.8,285.3,248.3,285.3,254z"/>
	<path d="M330.2,265.3h-2.7v-10.5h-19v-1.6L324,224h2.8l-15,28.4h15.7l0.5-14.4h2.2v14.4h5.7v2.4h-5.7V265.3z"/>
	<path d="M381.8,253.8c0,3.8-1.1,6.7-3.4,8.7c-2.3,2-5.6,3-9.9,3c-1.6,0-3.2-0.1-4.7-0.4c-1.6-0.2-3-0.6-4.4-1.1v-2.6
		c3,1.1,6,1.6,9,1.6c7,0,10.5-3.1,10.5-9.3c0-3-1-5.3-3.1-6.8c-2-1.5-5.4-2.4-10.2-2.7L361,244l1.3-20.1h17.8v2.4h-15.2l-1.1,15.4
		l2.9,0.1c5.2,0.4,9,1.5,11.5,3.4C380.6,247.2,381.8,250,381.8,253.8z"/>
	<path d="M430.7,253.4c0,4.1-1.1,7.1-3.2,9.1c-2.1,2-4.8,3-8,3c-2.5,0-4.7-0.6-6.6-1.8c-1.9-1.2-3.4-3.3-4.6-6.2
		c-1.1-2.9-1.7-6.8-1.7-11.8c0-8,1.3-13.8,4-17.2c2.7-3.5,6.6-5.2,11.6-5.2c1.1,0,2.3,0.1,3.4,0.2c1.1,0.2,2.2,0.4,3.3,0.9v2.7
		c-1-0.5-2.1-0.8-3.3-1c-1.1-0.2-2.3-0.3-3.4-0.3c-4.1,0-7.3,1.5-9.5,4.4c-2.2,2.9-3.3,7.9-3.3,15c1.1-1.1,2.5-1.9,4.1-2.5
		c1.7-0.6,3.4-0.9,5.2-0.9c3.4,0,6.2,1,8.4,2.9C429.6,246.4,430.7,249.4,430.7,253.4z M418.7,244.2c-1.6,0-3.2,0.3-4.9,0.8
		c-1.7,0.5-3.1,1.5-4.2,2.8c0.1,3.9,0.6,7,1.5,9.2c0.9,2.2,2.1,3.8,3.5,4.7c1.5,0.9,3.1,1.4,5,1.4c2.3,0,4.2-0.7,5.8-2.2
		c1.6-1.5,2.4-3.9,2.4-7.2c0-3.4-0.9-5.8-2.6-7.3C423.6,244.9,421.4,244.2,418.7,244.2z"/>
	<path d="M459.5,265.4h-2.9l14.4-38.7h-18.7v-2.6h21.9v1.6L459.5,265.4z"/>
	<path d="M524.3,254.7c0,3.3-1.1,5.9-3.4,7.8c-2.2,1.9-5.4,2.9-9.4,2.9c-4.4,0-7.7-0.9-10-2.8c-2.3-1.9-3.5-4.5-3.5-7.9
		c0-2.6,0.7-4.9,2.1-6.8c1.4-1.9,3.3-3.4,5.8-4.4c-2.4-1.2-4-2.6-5.1-4.1c-1-1.6-1.5-3.5-1.5-5.8c0-3.2,1.1-5.7,3.2-7.6
		c2.1-1.9,5-2.8,8.6-2.8c3.7,0,6.6,0.9,8.7,2.8c2.1,1.8,3.2,4.4,3.2,7.6c0,4.9-2.4,8.5-7.1,10.7c3,1.2,5.2,2.6,6.5,4.2
		C523.7,250.1,524.3,252.2,524.3,254.7z M500.9,254.5c0,2.8,0.9,4.9,2.7,6.4c1.8,1.5,4.4,2.2,7.9,2.2c3.1,0,5.6-0.7,7.3-2.1
		c1.7-1.4,2.6-3.5,2.6-6.1c0-1.7-0.3-3.1-0.9-4.2c-0.6-1.1-1.6-2.1-3.1-2.9c-1.5-0.8-3.4-1.5-6-2.2c-1.1-0.3-2.1-0.6-3-1
		c-2.4,0.8-4.3,2.1-5.6,3.8C501.6,250.1,500.9,252.2,500.9,254.5z M512.2,243.1c0.3,0.1,0.6,0.2,1,0.3c2.5-1.1,4.4-2.4,5.5-3.9
		c1.1-1.5,1.7-3.4,1.7-5.7c0-2.6-0.8-4.6-2.4-6c-1.6-1.4-3.9-2.1-6.8-2.1c-2.9,0-5.1,0.7-6.6,2.1s-2.3,3.3-2.3,5.7
		c0,2.4,0.7,4.4,2.1,5.9C505.7,240.8,508.4,242,512.2,243.1z"/>
	<path d="M572.7,243c0,8-1.3,13.8-4,17.2c-2.7,3.5-6.6,5.2-11.6,5.2c-1.1,0-2.3-0.1-3.4-0.2c-1.1-0.2-2.2-0.4-3.2-0.9v-2.7
		c1,0.5,2.1,0.8,3.2,1c1.1,0.2,2.3,0.3,3.4,0.3c4.2,0,7.3-1.5,9.5-4.4c2.2-2.9,3.3-8,3.3-15c-1.1,1.1-2.5,1.9-4.1,2.5
		c-1.7,0.6-3.4,0.9-5.2,0.9c-3.4,0-6.2-1-8.4-2.9c-2.2-1.9-3.4-4.9-3.4-8.8c0-4.1,1.1-7.1,3.2-9.1c2.2-2,4.8-3,8-3
		c2.4,0,4.6,0.6,6.6,1.8c1.9,1.2,3.4,3.3,4.6,6.2C572.2,234.1,572.7,238,572.7,243z M551.4,235.1c0,3.4,0.9,5.8,2.7,7.2
		c1.8,1.5,4,2.2,6.7,2.2c1.6,0,3.2-0.3,4.9-0.9c1.7-0.6,3.1-1.5,4.2-2.8c-0.1-3.9-0.6-7-1.5-9.2c-0.9-2.2-2.1-3.8-3.5-4.7
		c-1.5-0.9-3.1-1.4-5-1.4c-2.3,0-4.3,0.7-6,2.2C552.3,229.3,551.4,231.8,551.4,235.1z"/>
	<path d="M625,244.2c0,5.2-0.5,9.4-1.6,12.4c-1,3.1-2.5,5.3-4.4,6.7c-1.9,1.4-4.1,2-6.7,2s-4.8-0.7-6.7-2c-1.9-1.4-3.3-3.6-4.4-6.7
		c-1-3.1-1.6-7.2-1.6-12.4c0-5.2,0.5-9.3,1.5-12.4c1-3.1,2.5-5.3,4.4-6.7c1.9-1.4,4.1-2,6.7-2s4.8,0.7,6.7,2
		c1.9,1.4,3.4,3.6,4.4,6.7C624.4,234.9,625,239.1,625,244.2z M602.5,244.2c0,4.8,0.4,8.6,1.2,11.3c0.8,2.7,1.9,4.6,3.4,5.7
		c1.5,1.1,3.2,1.7,5.1,1.7c2,0,3.7-0.6,5.2-1.7c1.5-1.1,2.6-3,3.4-5.7c0.8-2.7,1.2-6.4,1.2-11.1c0-4.8-0.4-8.6-1.2-11.3
		c-0.8-2.7-1.9-4.6-3.4-5.7c-1.5-1.1-3.2-1.7-5.2-1.7c-2,0-3.7,0.6-5.1,1.7c-1.5,1.1-2.6,3-3.4,5.7
		C602.9,235.7,602.5,239.4,602.5,244.2z"/>
	<path d="M686.4,275.9c-1.5,0.5-3.2,0.9-5,1.2c-1.8,0.3-3.7,0.5-5.6,0.5c-5.3,0-9.7-1-13.4-3c-3.6-2-6.4-5.2-8.3-9.6
		s-2.9-10.2-2.9-17.4c0-7.2,0.9-12.9,2.8-17.3c1.8-4.4,4.5-7.6,8-9.6c3.5-2,7.7-3,12.6-3c4.9,0,9.1,1,12.5,3c3.4,2,6.1,5.1,7.9,9.3
		c1.8,4.2,2.7,9.7,2.7,16.4c0,4.3-0.4,7.7-1.3,10.3c-0.8,2.6-2,4.5-3.4,5.7c-1.4,1.2-3,1.8-4.7,1.8c-1.7,0-3-0.4-4-1.2
		c-1-0.8-1.6-1.9-2-3.1H682c-1,1.5-2.4,2.5-4,3.3c-1.6,0.7-3.4,1.1-5.2,1.1c-2.8,0-5.1-0.8-6.8-2.3c-1.7-1.5-2.5-3.7-2.5-6.6
		c0-2.9,0.9-5.1,2.6-6.6c1.7-1.6,4.5-2.6,8.1-3l7.8-0.9v-4c0-3.2-0.7-5.3-2.1-6.4c-1.4-1.1-3.5-1.7-6.2-1.7c-1.1,0-2.4,0.1-3.9,0.3
		c-1.5,0.2-2.9,0.6-4.4,1.2v-2.8c1.2-0.5,2.6-0.8,4.2-1.1c1.6-0.2,3-0.4,4.3-0.4c3.5,0,6.3,0.8,8.2,2.4c1.9,1.6,2.9,4.4,2.9,8.4
		v15.8c0,1.7,0.3,2.9,0.9,3.7c0.6,0.8,1.5,1.2,2.8,1.2c1,0,2-0.5,2.9-1.4c1-0.9,1.7-2.5,2.3-4.7c0.6-2.2,0.9-5.2,0.9-8.9
		c0-6.4-0.8-11.6-2.4-15.4c-1.6-3.8-3.9-6.6-6.9-8.3c-3-1.7-6.7-2.5-11-2.5c-4.3,0-8,0.9-11,2.6c-3.1,1.7-5.4,4.6-7,8.6
		c-1.6,4-2.4,9.3-2.4,16c0,6.8,0.8,12.3,2.5,16.3c1.7,4,4.1,6.9,7.3,8.7c3.2,1.7,7.2,2.6,11.9,2.6c1.8,0,3.6-0.2,5.3-0.5
		c1.7-0.3,3.5-0.8,5.3-1.4V275.9z M666.7,254.9c0,4.3,2.2,6.5,6.6,6.5c1.5,0,3-0.4,4.6-1.1c1.5-0.7,2.9-2,4.1-3.8v-9.3l-7.7,0.9
		c-2.7,0.3-4.6,1-5.8,2.1C667.3,251.4,666.7,252.9,666.7,254.9z"/>
	<path d="M728.1,263.6h-2.7l1.4-14.8h-6.1v-2.7h6.4l1-10.4h-7.3V233h7.6l1.4-14.8h2.7L731,233h7.8l1.4-14.8h2.7l-1.4,14.8h6.1v2.7
		h-6.4l-1,10.4h7.4v2.7h-7.7l-1.4,14.8h-2.7l1.4-14.8h-7.8L728.1,263.6z M729.7,246.1h7.8l1-10.4h-7.8L729.7,246.1z"/>
	<path d="M783.7,270.9h-2.9v-6.8c-0.2,0-0.5,0-0.7,0c-1.5,0-3.1-0.1-4.8-0.4s-3.3-0.7-4.9-1.2v-2.9c1.7,0.6,3.4,1,5.1,1.3
		c1.7,0.3,3.3,0.4,4.8,0.4c7.5,0,11.3-3.1,11.3-9.4c0-2.6-0.7-4.6-2.1-6.1c-1.4-1.4-3.8-2.6-7.1-3.6l-1.9-0.5
		c-3.4-1-6.1-2.5-7.9-4.5c-1.8-1.9-2.7-4.5-2.7-7.7c0-3.3,0.9-5.9,2.8-8c1.9-2,4.6-3.3,8.3-3.8v-7h2.9v6.8c0.2,0,0.4,0,0.6,0
		c1.5,0,2.9,0.1,4.5,0.3c1.5,0.2,2.9,0.5,4.1,0.9v2.9c-2.8-0.9-5.6-1.3-8.6-1.3c-3.8,0-6.6,0.8-8.5,2.3c-1.9,1.5-2.8,3.8-2.8,6.7
		c0,2.5,0.7,4.5,2,5.9c1.3,1.4,3.6,2.6,6.8,3.6l1.9,0.5c3.7,1.1,6.5,2.6,8.3,4.6c1.8,2,2.8,4.5,2.8,7.7c0,3.4-1,6.2-2.9,8.3
		c-1.9,2.1-4.6,3.3-8.2,3.8V270.9z"/>
	<path d="M835.9,231.7c0,3.4-0.4,6.2-1.2,8.3c-0.8,2.1-1.9,3.6-3.3,4.5c-1.4,0.9-3,1.4-4.9,1.4c-2.8,0-5-1.1-6.7-3.2
		c-1.7-2.1-2.6-5.8-2.6-11c0-5.2,0.9-8.8,2.6-10.9c1.7-2.1,4-3.2,6.7-3.2c2.8,0,5,1.1,6.8,3.2C835,222.9,835.9,226.6,835.9,231.7z
		 M820,231.7c0,4.4,0.6,7.5,1.8,9.2c1.2,1.7,2.8,2.5,4.7,2.5c1.9,0,3.5-0.8,4.8-2.5c1.2-1.7,1.8-4.7,1.8-9.1c0-4.4-0.6-7.5-1.8-9.2
		c-1.2-1.7-2.8-2.5-4.8-2.5c-2,0-3.5,0.8-4.7,2.5C820.6,224.2,820,227.3,820,231.7z M832.1,263.6h-2.9l18-45.4h2.9L832.1,263.6z
		 M862.3,250c0,5.2-0.9,8.9-2.6,11c-1.7,2.1-4,3.2-6.7,3.2c-2.8,0-5-1.1-6.8-3.2c-1.7-2.1-2.6-5.8-2.6-11c0-5.2,0.9-8.8,2.6-10.9
		c1.7-2.1,4-3.2,6.8-3.2c2.8,0,5,1.1,6.7,3.2C861.5,241.1,862.3,244.8,862.3,250z M846.4,249.9c0,4.5,0.6,7.6,1.8,9.2
		c1.2,1.7,2.8,2.5,4.8,2.5s3.5-0.8,4.7-2.5c1.2-1.7,1.8-4.7,1.8-9.1c0-4.4-0.6-7.5-1.8-9.2c-1.2-1.7-2.8-2.5-4.7-2.5
		s-3.5,0.8-4.8,2.5C847,242.5,846.4,245.5,846.4,249.9z"/>
</g>
</svg>
